<svg id="da4242a5-9cb4-43ac-ac5d-2263ac9bc7eb" data-name="границы Административных округов" xmlns="http://www.w3.org/2000/svg" viewBox="0 0 320.41 398.62"><title>moscow</title><path id="a6cb68ac-d4a4-4a5f-9ad4-e0ee16b6adfe" data-name="СЗАО" d="M38.53,126.89l0-.25h.32l.22-.45.17,0h.17l.16,0,.16,0,.16,0,.6-3.34.47-2.63v-.08l.45-2.53L42,114.5l.35-2.78v-.12l.33-1.93.11-.59h-.42l-.06,0H42.3l0,0h-.1l-.07,0H42l0,0h-.68l0,0,0,0H41.1l-.09,0h-.62l0,0-.06,0-.07,0-.07,0-.07,0,0,0H40l-.2-.06h-.15l0,0h-.25l0,0h-.07l-.09,0-.1,0-.15,0-.13,0H37.57l-.11,0h-.59l-.07,0h-.11l-.07,0-.09,0h0l0,0H36.2l-.08-.11-1.9.82-1.37.58-2,.86-.78.53-.68.79-1.12,1.81-.44,1-.22,1-.05,0-.11,0-.71-.28-.27,0L26,115l-.65-2-.33-1.14-.25-.11-.15,0h0l-1,.2h0l.12.33L24,113l.16.37.69,1.91-1,.25-.08,0,.23.5-1.11.41-1.23-.64-.28-.16.46-.73.56-.9.15-.22-.28-.18-.62-1.52-.3-.17-.51.14-1.29.29-.1.09-.15-.09-.06-.17,1.58-1.92.28-.48,0-1.4-.25-.26,0-.1.25-.92-.53-.17-1.52-.47-.25-.11-.85-.77-.16-.14,0,0,.15-.19h.09l.6-.86.19-.27,0-.08.43-.55,0,0v0l-.11-.11,0,0-.08-.07-.71-.7,0,0-.17-.15-.22-.21-.45-.42-.47-.43.07-.24,0-.18,0-.64L18.9,100l.5,0h.9l.13,0,.11-.06,0-.05.09-.09.13-.18-.06,0,0-.11,0-.11L21.15,98v-.24l0-.14.1-.41v-.07l0,0-.08,0L21,97l-.78-.24-1.87-.5-1.17-.1-1-.07L14.83,96,13.6,95.9h0l0-.06v-.18l0-.07,0,0,0,0h0l0,0h-.07l0,0h-.08l0,0v-.22l0-.08V95h0l.06,0,0,0,0,0v0l0,0,0,0h.07v0h.06l0,0h.16v0h0l0,0h0v-.06h.1v0h.12l0,0h0v0h0l0,0v0h.09v0h0v0H14v0h0v0h0v0h0v0h.14l0,0h.05v0h.12v0h.16l0,0h.08v0h0l0,0h.07v0h.23v0h.15l0,0h.12l0,0h.11l0,0h0v0h0l0,0h0v0H15.5v0h0l0,0h0v0h.05v0h0v0h0V93h0l0,0h.06v0h.16l0,0H16l0,0h0l0,0h0v0h0v0h0v-.07h0v0h0l0,0H16v0h0v0h0v0h0v0h0v0h-.1v0h0v0h0v0h0v0h0V92h.12l0,0,0,0,0,0h0l0,0h.16v0h0v0h0v0h0v0h0v0h0l0,0h0l0,0v0l0-.15v-.06l0,0,0,0,.06,0,0,0,.05,0,.06,0,0,0,0,0,0,0,0,0v0l0,0v0h0l0,0,0,0v0l0,0v0l0,0,0,0,0,0,0,0v0l0-.09v-.07l0,0v-.17l0-.09v-.11l0,0,0-.07,0,0,.05-.05,0,0v-.19h-.12l0,0,0,0,0,0,0,0v-.69h0l0-.1v-.51l0-.08,0-.07-.05-.11,0-.08,0-.09V87.3l.05-.14L17,87l.08-.1,0-.14v-.08l0-.08L17,86.4v-.07l0,0,0,0,.05-.07,0-.07v-.19l0-.07v-.12l0-.12,0-.13,0-.2,0-.2,0-.09,0-.07.06-.07.09-.11.12-.16.05,0,0-.1,0-.08,0-.15v-.09l0-.08.05-.07,0-.07,0-.09v-.23l0,0v0l0-.19,0-.16h0l.06,0,0,0,0-.06.07-.08.05-.06,0-.06,1.24-.62.67-.79-.34-.6.25-.1,0-.06.28,0,.38-.21.74-.08.21-.24,3.87-.39.59-.69.17-.38.19-.3.13-.17.76-.9.29-.33v0h.15l0,0,0,0v0h0v.14H28v0h.09v0h.1l0,0,0,0v0l0,0v0h0v-.05h0l0,0,0,0h0l0,0h0l0,0v-.09l0,0h0l0,0h.1l0,0,0,0v0h0l0,0h0l0,0,0,0,0,0,0,0,0,0H29l0,0,0,0,0,0,0,0,0,0v0l0,0,0,0v0l0,0v0l0,0h.07l0,0,0,0h.05v-.09h.05l0,0v0h0V76.5h.12v0l0,0v0h.08v0h.08v0l0,0,0,0,0,0,0,0h.07v.15H30l0,0h0v0l0,0v-.12h0l0,0,0,0,0,0v.13l0,0v0h.07l0,0,0,0v.08h0l0,0h.16v0h.1v-.09l0,0h0l0,0H31l0,0v0l0,0,0,0v0h0l0,0h.07v0h.06l0,0h0v0h.06V77l0,0v0h.29l0,0,0,0,0,0h.08l0,0h0l0,0,0,0V77l0,0h.11v0h0v0l0,0h0l0,0h0l0,0v0h.06l0,0h0l0,0,0,0,0,0v0h0v0l0,0,.05,0h0v0l0,0h-.08l0,0,0,0h0v0l0,0,0,0h0l0,0,0,0h.16v0l0,0h0l0,0H33l0,0h.12v0h0l0,0v0h0l0,0v0h0l0,0h0v0h.08v0l0,0h0l0,0v0h.08l0,0v-.12h.08l0,0h.06l0,0h.13l0,0,0,0h.09v0H34l0,0h0l.06,0h0l0,0v-.1h.08l0,0h0v0h.1l0,0h0v0l0,0h.05v-.05h.05l0,0h0v0h0v0h0l0,0,0,0h.05l0,0,0,0h.1l0,0,0,0H35v.07h0l0,0h0v0h.1v0h.06v0h0l0,0h.08v0l0,0v0h.13v0h0l0,0h-.06v0h0v0h.13l.05,0h0v0h0l-.06,0h0l0,0h.13l0,0,0,0v.09l.14.14,0,0v0h-.09v.09h0v0l0,0v0h0l0,0v0h0l0,0h-.05l0,0h0v0h0v0h-.12v0h0l-.07,0h0l0,0h.05v0h0l0,0h-.09v0l0,0v0h0v.09l0,0v0h0v0h0v0l0,0h0v0H35.2v0h.07v0l0,0v.07l0,.07h0l0,0v0h0l.05,0h0v.09h-.17l0,0v0l0,0,0,0,.06,0v0l0,0,0,.1v.1l0,0,0,.12V79l-.12,0,0,0,0,0,0,0,0,.07v.17l0,.07,0,.06,0,0,0,0,0,0,.06,0,0,0,0,0v.08l0,.09,0,0,.14.07.11.07.14.08.07.07,0,.06.07.06.16.11,0,.06,0,.06v.16l0,.07,0,.11-.05.08-.07.06-.11.09-.17.1-.06,0-.08.07-.05.07,0,.07,0,.06V82l0,.13,0,.11v.17l0,.07,0,.11,0,.1,0,0,0,.05.06,0,.06,0,.08.1.09.07.07,0,.07.08.05.08.06.07,0,.06,0,0,0,.08v.32l0,.06,0,0L36,84l-.09,0-.07,0-.11.06-.1.07-.09,0-.13.07-.13.07-.09,0-.09.07-.08.07-.1,0-.13.07-.09,0-.12.07-.06,0-.06.06,0,.1,0,.11v.17l-.05.15,0,0,0,0h0l0,0v.18l0,.11v.12l0,.06,0,0,0,0,0,.08,0,.07,0,.09v.17l0,.12,0,0-.06.06,0,.06-.13.11-.12.08-.08.06-.06.05-.06.08,0,.09v.17l0,.06.07.08.25.22.22.21.06.06.1.06.07,0,.11,0,.08,0H35l.09,0,.07,0,.08,0,0,.08.06.08.13.11.14.11.07.1.22.11.21,0,.11,0,.12,0,.09-.06.14-.16.11-.11.09-.16.06-.09.08-.11L37,88,37,88l.08,0,.32,0h.29l.09,0,.32,0h.1l.2.06h.29l0,0,0,0,.06-.06.13-.11,0,0,0-.07v-.08l0-.09,0-.1.06-.15,0-.08.05-.11,0-.06,0,0,0,0,0,0,0,0,.05,0h.11l.06,0,.06,0,0,0,0,0,0,0,0,0,0,0,.24.33.09.15.11.16.13.17.12.2.11.13.11.08.07,0,.06,0h.06l.07,0,.21-.23.22-.26.08-.09.11-.09.19,0h.22l.23,0,.13,0,.11,0,.07,0,.08.08.07.08,0,.11,0,.11.21,0,.07-.1.31-1.13.36-1.29.74-2.24.94-2,1-1.85,1.64-2.37.85-1,1.19-1.24,1-.92-2.45-2.82-1.12-1.47-2-.41-2.08-.49-.08-.08h0l-.46-.1-1.84-.17-2.05-.19-.7-.06-.7-.14h-.07l0,.07-.43,0h-.07L37.12,68,37,67.84l0,0-.1-.05h-.11l-.05-.06,0-.1-.06-.2,0-.07v-.18l0-.06v0l0-.05v0l0-.07v0l0-.1-.11-.13,0-.07,0-.07,0-.07,0-.07,0,0,0,0-.06,0h-.08l-.06,0h-.09l-.13-.11-.05,0h-.19l-.09,0-.05,0,0,0,0,0,0,0,0-.06-.1-.14-.11-.11-.15-.15-.09-.08-.1,0-.21-.07-.12-.08-.06,0h0l-.08.06-.06,0h-.19l-.08,0-.16-.07-.06,0h-.39L33,65l-.22-.09h0l0,0,0,0,0,0,0-.06,0-.08,0-.09v-.13l0-.12v0l0-.07,0-.14,0-.06,0-.08,0,0,0,0,0,0,0,0,0,0,0,0,0-.06-.09-.08,0-.07,0-.08,0,0,0,0v-.09l0,0V63l0-.09v-.09l.06-.2.08-.14.09-.16.12,0,.06-.17L32.4,62l.1-.2.06-.08.11,0,.1-.09,0-.1.06-.13.11-.21.13-.09.33-.34.1-.2,0-.05,0-.08v0l0-.09v-.05l0-.09,0-.09-.08-.11-.06,0h-.07l-.11,0-.16,0h-.16l-.19,0-.1-.06-.06-.08v-.38l0-.09.06-.11,0-.08v-.36l0-.36,0-.12L32.8,58l.09-.13.07-.12,0-.06,0-.12,0-.19-.1-.21L32.81,57l0-.19V56.7l0-.11.06-.13L33,56.4l.16,0,.09,0h.12l.25-.07.09,0,.09,0,.22-.09.31-.17.2-.13.15-.13.12-.1.05-.08,0-.1v-.09l0-.1-.08-.13L34.7,55l-.11-.15-.15-.21-.09-.12-.1-.12-.08-.15L34,54l-.2-.28-.07-.1-.06-.07-.07-.06-.2-.14-.1-.07-.07,0h-.35l-.2.05-.22.06-.1,0h-.07l-.08,0-.09,0-.08,0H32l-.08,0-.07,0-.06,0-.05,0-.1,0-.09,0h-.18l-.08,0-.07.06-.1.1-.15.07-.15,0-.19,0-.15,0-.17,0H30l0,0,0-.07,0-.05,0,0,0,0h0l-.06,0-.05,0h-.06l-.06,0,0-.05-.09-.08-.05,0-.07,0,0,0,0,0,0-.05v-.17l0-.13,0-.14V53l0,0v-.45l0-.07-.06-.12,0-.11,0-.19,0-.06h.07l.24,0h.09l.08,0h0l.15-.1.12-.11.07-.06,0-.06,0-.07v-.18l0-.05,0-.07v-.07l0-.05L30.2,51l0-.07v-.14l0-.12L30,50.47l-.16-.17-.13-.07L29.44,50l-.08-.11,0-.09v-.2l0-.08-.09-.13-.11-.15-.05-.1L28.86,49l-.38-.14-.17-.05h-.39l-.07,0-.08,0-.06-.05,0,0,0-.06-.08-.12-.07-.11,0-.08,0-.09v-.13l0-.22v-.14l0,0h0l.1.07.08,0,.06,0h.09l0,0,0,0h.09v-.11h0l0,0,0,0h0l0,0h0l0,0,0,0v-.06l0,0,0,0,0,0,0,0,.09-.07.06-.05.06,0h.21l0,0v0h0l.11-.06.05,0,0,0h.22l.05,0,0,0h0l.12,0,.06,0,0,0,0,0,0,0,0,0,.08,0,.09,0,.1,0,.09,0H30l.07,0,0,0h.18l.09,0h0l.12,0h0l.07,0,.07,0,.07,0,.21,0h.12l.05,0,0,0,.07,0,.07-.05.06,0,0,0,0,0h0l0-.08-.78-1.73-.36.2-.75-1.16,1.72-1.28,1.49-1.24,1.84-1.37.43-.16.31,0h.43l.88.07.6,0h.33l.32,0,.15,0,.48-.07.54-.09.29,0,.16-.06.13-.08,1-.66.32-.21.07.1,0,.06,0,.08v.13l0,1.28v.1l0,2.09v.81l0,1,0,1.25v.63l0,.19L41,46l.06.18.1.2.22.3.24.27.29.19.19.1.22.1,1.06.26.45.11.59.12.49-.15H45l.42.72.52,1.75.1.31v0l.1.34,1,3.15.49,1.31,0,.16.06.18,0,.18,0,.2,0,.19,0,.34v0l-.17,2.2v.37l0,.23,0,.2,0,.14.08.19.06.16,0,.13.05.13.08.13.08.12.11.11.14.13.34.26.32.21,1.17.66,0,3.62.48.33,2.16.84-.39.19.12.19.55-.27.07,0,.72.71h1.92V68l1.23.18.18-.24.09,0,.11,0,.13.06.12.05.16.07.11.06.11,0,.08,0,.1,0h.32l.15,0,.15,0,.13,0,.13,0,.14-.06.13,0,.12,0,.12-.06.14,0,.1,0h.09l.15,0,.12,0,.15,0,.14,0,2.17-1.21.49-.27.62.87,0,.36.06.8.36.58.68.58L66.21,71l1.11.85,1.29,1.23.64.53,1.2.93.69.18.52,0,.3,1.39,0,1.16.08.86.18,1.23.4,1.58.07.82.25.88.53.87.27,1.09.27.79.3,1.13.18.88.17,1,.32,1,.08,1,.15.65.75.83.34.85,0,.75.21.44.25.49.45.76.63.51.66.82.37,1,.5.31.22.38.56.29.36.53.12.67,0,.54-.26.83-.13.71,0,.66.24.51,1,1,1,1.44.77,1.22.35.76.21.35.06.69-.38.24-1.85.4,0,.15.66,1,.22.34,0,0,.79,1.23.07.11.08,0h.11l.19-.07.72-.29h.48l.7.08.33.08.36.11.63.16h.07l.3,0h.38l.49-.06.24-.07.53-.26.23-.11.16-.07h0l.08,0,.07,0,.06,0,1.1,2.39-.34.24-.34.33-.59.61-.22.28-.2.28-.42.65L88,117l-.24.65-.22.87-.13.78,0,.44v.47l0,.62,0,.69v.06l0,.21.06.91,0,.25.06.33.07.25.14.47.12.28.32.72.4.81.73,1.56.48,1,.71,1.46,1.29,2.64,1.29,2.68.13.27.41.84.12.25.13.25.16.35.34.69.31.67L95,139l.13.4.13.49.07.32.07.36.21,1.66.07.55.18,1.47,0,.19.13,1,.08.68,0,.14.16,1.27.26,1.87.25,2,.15,1.22,0,.23,0,.21.13.49.09.3.09.26.06.17.18.42.39.83.34.7.12.23.41.75.21.39.15.25.2.41.09.17.11.21.2.36.13.25.18.33.08.15.16.3.08.15.07.14.15.27.17.32.06.12.07.12.07.13.08.15.15.29.2.36.17.32.37.69.4.73.39.74.4.75.13.25.14.25.18.34.15.27.2.38.11.22.23.43-.06,0h0l0,0,0,0,0,0,0,0-.16.11-.1.1-.24.17,0,0-.08.05-.14.1-.32.21-1.26.86-.47.32-.83.57L99.35,169l-2.8-1.81-.74-.64-.64-.74-.9-.82-1.41-1-.3-.16-.69-.36-1.93-1.07-1.12-.51-1.22-.2-1.28,0-1.25.17-.9.22-.29.15-.27.17-.21.24-.18.31-.46,1-.34.86-.1,1.3v1.09l.29,4.1,0,.8-.1,1.18-.16,2-.19.9-.31,1.15-.47,1.18-.66,1.05-.85,1-1.75,1.77-1.23,1-1.44.88-1.28.56-1.84.52H71l-1.57-.46-1.32-.62-1-.63-.94-.83-1.32-1.4-1.13-1-.34-.58-.16-.66.12-.72.14-.42,0,0,.22-.36.88-.72,1.42-.66,1.63-.68,1.57-.68,2-.85,1.14-.76,1-.88.94-1.14,1.08-1.44.76-1.15.53-1.87,0-.27v-.08l0-.43-.05-.86-.14-.79-.13-.46-.5-1L74.73,161l-2.45-4.35-1.07-1.3-1.15-1-.46-.23-.41-.12-.34,0-.37,0-.89.32-.89.47-2,.95-1.51.69-1,.18-1.62,0-.91-.1-1.54-.2L55.85,156l-2-.33-1.28-.09-1-.07-1-.12-.7-.09-3.24,3.38L46,159l-1.08.22-1.63,0-1.89.14-2,.11-.27-.25-1-.63-.32-.2-.61,0-.83-.07-.31,0-.17.06-.13.11-.1.1,0,.3-.91.15-2.92.42-.29-.3v-1.42h-.66l0-.77v-5.36l0-2.14.06-.68,0-.27,0-.48v0l0-.34.33-1.31.19-.89.05-.23v-.43l0-.11-.05-.09-.07-.12-.12-.18-.09-.11L31,143.6l-.2-.24-.19-.21-2.16-.84,1.91-.34.11,0,.11,0,.13,0h.13l.17,0h.14l.17,0,.15,0,.13,0,.16,0,.13,0,.11,0,.13,0,.15,0,.15,0,.15,0,.14,0,.1,0,.1-.05.12-.07.08-.05.13-.08.08-.07.09-.08.13-.11.37-.68.36-.68.37-.67.45-.83L36.27,136l.71-1.34,0,0,.25-.47,0-.05.19-.36.06-.17.07-.15.24-.44.45-1h0l.09-.19.62-1.67.4-1.51h0l-.08,0-.11-.05-.06,0-.06-.1,0-.07,0-.12,0-.12,0-.15v-.14l0-.13,0-.13,0-.15,0-.14v-.15l0,0-.06-.07-.1,0-.11,0-.32-.08" fill="none" stroke="#29a6ff" stroke-linejoin="round" stroke-width="1.5" fill-rule="evenodd"/><path id="979fb6fc-1c51-4c5b-931d-eb5d33559052" data-name="ЗАО" d="M42.69,224.32l-.13-.13-1.51-1.57L38.13,225l-.11.2v.29l-.18.09-.21-.05-.14.05-.72.62-.12-.05L35,227.7l-.17.17-1,1.39-.85-.46-.35-.19-.42-.21-.07,0,.66-.91-1.32-.3-1.07-.23-.13.21-.14.22h0l0,.07-.18.2-.08.12-.27.59-.35-.13-.5-.38-.46.62-.31,1,.39.23.39.25-.19.4-1.88-1-.18-.09.5-.65.15-.12,0,0v-.1l-.07-.09-.08-.07-.27-.21-.4-.24-.1-.08,0-.41-.42-.24-.2-.07-.35,1.16-.16.24-.08.14,0,.53-.22.6-.21,1,.41-.21-.47,1.33-.29.53,2.89,2.91L26,237l-.14.25-.26.44-.29-.14-.48.79-1,1.57-2.61-1.78-1.39,1.93-5.95-3.51,0,0-.1,0-.12-.14-.79-.48-.17-.14,0,.08-.58-.27L12,235.3l-.21,0-1.41-.72,1.48-2.46.25.17-.48.74v.09l-.47.7,0,0,0,0,0,0-.39.54,1.18.72.43.24.36.25.74-1.19,0,0,.75.75.34-.35v-.09l-.58-.57.14-.46,0-.14,0-.13,0-.1-.09-.08-1.42-.88-.64-.39.63-1.07,0,0,1.36-2.23.17.11.78-1.25,1.28-2,.27.72v1l-.13.4-.27.64.11.44.32.75,0,.07v.87l-.14.3h.28l.15-.06,0-.34.18-.18V230l.8-.31h.06l.24-.08v-.05l.15,0h0l-.06-.31.76-.14.08-.17-.06-.14v-.19l0-.73-.74-1.54v-.48l0-.44h0l0-.19.1-.19.1-.37.05-.18v-.16l.37-1.09.36-.65.08-.85.11-.42.79.43.28.16.08,0,2.14-2.15,0-.06-.05-1.38h-.12l0-.32,2.22-2.15.14.14-.31.34,0,0,0,0-.49.53,0,0-.14.15-.13.15v.09l.06,0,0,0,.07.49-.47.46.09,1.16,1-.05h.11l.06.91.8-.06-.05-.87,1.95-.11.84-.05v-.11l.08-.82h.07v.16l.14.24.29.29v0l.06,0,.55-.05,0-.31-.44-.46h.28l.14-.15.15-.42,0-.33.28-.14.16.81,1.1-.29-.05-.24-.51.08-.1-.54.43-.15.07.25,1-.44-.07-.14-.19-.27-.92.41-.27-.71h0l-.89-2.1,1-.39.42,0,0-.32.08-.6-.41,0-.07.27-.37,0,0,.21v0L29.05,213l-.09-.18-.28-.56,2.41-1.24,1.17-.51,1.27-.36.52-.14.29.75h.25l.36,1.09,0,.5v3.95l.28,6.07,1.84-1.27,1.65,1.34,1.17-1,.93,1L42,221.22l-1.69-2,.89-1.4-1.08-.68.15-.27L40,216.2l2.17-1.37-.23-.38L40.81,213l-.87-1.55-.41-.71-.18-.32-.11-.1-.09-.08-.1-.08L39,210l-.11-.09-.09-.06-.15-.1-.12-.07-.15-.09-.11-.06-.13-.06-.14-.08-.13-.08-.13-.07-.11-.07-.1-.06-.06,0-.16,0-.14,0-.22,0-.1-.42.07,0,.09,0,.08,0,.08-.08.1-.1.08-.1.07-.09.09-.11.08-.09.08-.1.07-.09.1-.11.07-.08.08-.09.06-.09.07-.1,0-.09v0l0-.06,0-.12,0-.12-.41-1.44-.43-1.47,0-.12,0-.12-.62-2.15-.09-.13-.08-.11-.09-.12-.07-.12-.06-.13-.06-.13-.07-.13-.08-.11-.08-.11-.09-.13-.09-.13-.1-.12-.11-.1-.08-.05-.13,0v-.35h.09l.09,0,.06-.1.06-.08.06-.15v-.41l0-.29-.43-1.51-.56-2,0-.16-.23-.86-.43-1.38-.45,0-.3-.24-.09-.31,0-.17,0-.18.07-.29.11-.47,0-.23,0-.2-.18-.65-.09-.46-.19-.74L32,185.1l-.45-1.46-.19-.75-.51-2.2-.18-1.61-.13-1.93V175.6l.08-3.44.05-.76v-1.54l0-.76.05-.76-.07-.68,0-1.11-.07-.07-.09-.08-.14-.26,0-.14,0-.12,0-.12,0-.12v-.18l0-.1,0-.09-.06-.07-.11,0-.09,0-.1,0-.13,0-.14,0-.08,0h-.13l-.26.07-.06-.17h0l.08,0,.24-.15.1-.23,0,0h-.07l0-.14,0-.14v-.09l0-.09,0-.12.06-.1,0-.05.09-.11.06-.08.08-.12.09-.1.09-.1.09-.09.1-.12.09-.1.08-.1.05-.06,0-1.33v-.16l-.05-.15,0-.06-.06-.08-.08-.1-.09-.09-.09-.11-.1-.1-.09-.11-.1-.11-.06,0-.07,0-.09-.07-.08-.11,0-.08,0-.13v-.09l.06-.15,0-.13.07-.13v0l0-.06-.07-.06-.08-.09-.12-.1-.12-.1-.11-.1-.1-.12-.08-.07.06-.08.06-.07.13.1.11,0,.09,0h.06l.09,0,.05,0,.18-.09.13-.06.13-.05.08,0,.08-.05.18-.16.11-.08.13-.08V158l0-.09,0-.27h.66V159l.29.3,2.92-.42.91-.15,0-.3.1-.1.13-.11.17-.06.31,0,.83.07.61,0,.32.2,1,.63.27.25,2-.11,1.89-.14,1.63,0L46,159l.63-.32,3.24-3.38.7.09,1,.12,1,.07,1.28.09,2,.33,2.21.36,1.54.2.91.1,1.62,0,1-.18,1.51-.69,2-.95.89-.47.89-.32.37,0,.34,0,.41.12.46.23,1.15,1,1.07,1.3L74.73,161,76,162.8l.5,1,.13.46.14.79.05.86,0,.43v.08l0,.27-.53,1.87-.76,1.15-1.08,1.44-.94,1.14-1,.88-1.14.76-2,.85-1.57.68-1.63.68-1.42.66-.88.72-.22.36,0,0-.14.42-.12.72.16.66.34.58,1.13,1,1.32,1.4.94.83,1,.63,1.32.62,1.57.46H72.3l1.84-.52,1.28-.56,1.44-.88,1.23-1,1.75-1.77.85-1,.66-1.05.47-1.18.31-1.15.19-.9.16-2,.1-1.18,0-.8-.29-4.1v-1.09l.1-1.3.34-.86.46-1,.18-.31.21-.24.27-.17.29-.15.9-.22,1.25-.17,1.28,0,1.22.2,1.12.51,1.93,1.07.69.36.3.16,1.41,1,.9.82.64.74.74.64,2.8,1.81,1.09,1.06.29.28.85,1.07.66,1.88.22,1.21.17.54.84,2.18.06.15.81,1.93.18.26.58.81.93.85,1.15.62,2.13.18,2.07-.21,1.75-.7,1.53-.9,1.41-1.12,1.22-1,1.56-1.23,1.08-.86,1.45-.82,1.26-.59,1.84-.44,1.86.21,1.4.54.26.26.34.34.47.47.47,1,.12.65.11.61,0,2.16-.15.75-.12.63-.41.87-1.56,3-.7,1.35-1.23,1.84-1,1.11-2.2,1.73-2.89,2.66-2,1.3-.5.3-1.23.75-.15.11-.88,1.27-.58,1.3-.33,1.69,0,1.65.39,2.16.69,1.68,1.26,1.65,1.23,1.21,2.1,1.1,1.91.54,1.13.05-1.06,1.42-1.37,1.77L116,219.24l-4.67,6.12-.4.39-2.73,2.7-8.83,8.69.22.24,1,1,2.2,1.83,2.33,2,.15.1.06.05-1.94,2.37-5.35,6.39-1.16,1.36-2.34,2.77-2.9,2.46-6.23,5.18-.08.07-2,1.65-7,5.8-3.84,3.1-.14-.14.09-.09.1-.1.07-.1.09-.11,0-.14,0-.1,0-.15,0-.14v-.14l0-.2,0-.23,0-.21,0-.11,0-.29,0-.19,0-.11v-.32l0-.08-2.06-3.12-2.09-3.17-2.3-3.49-.79-1.13-.07-.11-1.28-1.83L63.3,256l-.59-.91-.54-.82-.13-.08-.13-.08-.17-.08-.15-.06-.17-.06-.16-.07L59.68,253l-1,.11-.15,0-.76.1-.83.1-2.2.29-1.73.22.06,1.85-.06.16H53l-.82.06-.07,0,.65,1.7.88-.11.5,2.37-1.3.67.13.38-.19.07,0,.18-.47.14,0,.15.9,2.89.75-.27,0,.49v.12l0,.46v.06l0,.3.16,1.26,0,2-.22,1.61-.21,1.28v.74l-.64-.07v.13l0,1.92v.19h-.15l-.4,0-.8-.15-.36,1.73L51,277.77l-.31,1.81,0,.21,0,.09-.05,0,0,0,0,0,0,0,0,0h-.11v0l0,0h0l0,0-.1,0h-.21l-.11,0h-.18l-.06,0-.05,0-.06,0h-.07l0,0-.06.05h0l0,0,0,0,0-.05,0,0H49l-.1,0h-.08l0,0-.05,0h-.19l0,0-.05,0,0,0h0l-.08,0h-.13l-.08,0-.08,0-.09-.07-.07,0-.12,0h-.36l0,0,0,0h-.21l0,0,0,0H46.8l0,0H46.6l-.09,0-.09,0,0,0h-.1l-.05,0h-.82l-.08,0h-.12l0,0,0,0,0,0-.11,0,0,0h0l0,0,0,.15,0,.19,0,.44,0,.43,0,.22-.17,0-1.4-.12,0,.07-.39.81-1.21-.24-1.68-.33.1-.78.24-1.49,0-.14,0-.19,0-.12h-.06l0,0-.07,0-.06,0,0,0-.06,0-.06,0-.05,0,0,0-.06-.06-.09-.08-.07-.07,0,0-3.43,3.89-1,1.11-1.07,1.19.93.85-.56.6-1.25-1.13-.22-.21-1.28-.49-1.33-2.15L29.49,279l-1.79.65-1.21-1.35,0,0,.15-1.59-.19-.5-.43.07-.23-.26.07-.41-.13-.17-1.27-.4-.15-.11-1.1-.06-.69-.55-.44-.13-1.56,1.53-.18.11-.27.14-.45.21-1.42.62-.21-.53-1.56-1.37-.15-.08-1.2.27,0-.22-.17-.58h-.06l-.1-.46-.42-1.56-.94-.91-.44.07-.57.12L12,271l.37-.76-.26-.85.3-.28,0,0,0,0,.5-1.94.17-1.19-.55-1.15v0l.1-.07.83-.83.66-1.21.19-.49.19-.47.52-.82.85-.8,1.27-.6,1.16-.43h0l0,0,0,0-.05,0,0-.05,0-.11,0-.1v-.06l0-.07,0-.07,0-.06v0l-.09-.07-.06-.07,0,0v-.08l0-.07.06-.09,0-.06v-.1l0-.05,0,0-.17-.14,0,0,0-.1,0,0,0-.05,0,0V257l-.05-.07v-.18l.14-.08.47.67.39.36.29.16.43-.13.63-.64-.12-.13,0,0,0,0-.79-.77.37-.48.13-.26.46-.71.3-.28.06,0v-.06l-.51-.12-.95-.36-.1,0-.41,0-.48,0,.1-.08,0,0,0-.06,0-.06,0-.07,0-.07,0-.05,0,0,0-.05.06-.08.06-.08,0,0,0-.05,0,0v-.14l0-.06,0-.07,0-.05v0l0,0,0,0,0,0,0,0h.05l.05,0,0,0v-.1h0l0,0,0,0,0-.06,0,0V252l0,0v0l0,0,0,0,0,0H19v0l.2,0,1.47.33.22-.67.09,0,.09-.09-.13-.92,0-.18-.08-1.28,0-.11.83.22.18.12.64.46h.1l.28.23.33.37.29.38L22,251.88v.32l0,.19H22l-.09.51.65.32.62.41,1-.69,1.64-1.21-.1-3,2.46-2.23.26-.22.34-.17,2.12.17.46.79,0,.91-.06.17,0,.44,0,1.7-.09,2.7.17.42-.1.87.57.39h2l.93,0,.49-.32.15-.29.09-.56.28-1.74.3-1.28.08-.2.09-.14.24-.07.78-.05,1.46,0,.44,0,.24.14.68,1.34.47.77.23.14,2.21.7,1.49-.08,1.27-.45.45-.07.18,0,.46.06,1.2-.35,2.32-.87,1.2-.56.94-.56.72-.41L52,247.63l-2.75-1.94.09-.07L49,245.1l-.38.23-.51-.26-.25-.25h-.06l-.1-.29.16-.57,0-.25.18-.7.43-.38.13-1,.88-1L50,240l.43-.32.24-.23-.05,0,.52-.41-.34-.47.56-.39.75-.5,0-.08.91-.61,1.06-.74-.08-.1,0-.05,0,0-.55-.57-.33-.33-.05,0-.07,0h0l-.12.08-.12.07-.11.07-.08-.15.07,0,.16-.1.1-.08.13-.12v-.07l0-.08v-.08l0-.12,0-.12,0-.12,0-.11,0-.08,0-.11,0-.09v-.47l.08-.58,0-.06,0-.07v-.26l-.1-.58-.06,0-.37-1.76,0-.11-.23-.66-.37-1.13-.06-.16-.12-.25-.22-.49-.64-1.15-.95-1.35-2.06-2.72-.93-1.21-.36.45-.16.2-.12.11-.06,0-.72.32-.12,0-.12,0-.1,0-.08,0-.05,0-.07.08-.08.09,0,0,0,.07,0,.11,0,.08-.05.07-.07.06-.08,0-.08,0H44l-.07,0-.07,0h-.3l-.06,0-.08,0h-.22l-.07,0-.07,0,0,.06,0,.06,0,.08,0,.08v.1l0,.16v.1l0,.15v.2l0,.09,0,.07-.06.08,0,.07-.08.08,0,0M6.84,160.62l.17.46.68,1.83,1.08-.11.54-.06.7-.07.79-.09h.08l.58-.06h.08l.44-.12.43-.35.82-.12v-.23l.08,0,0-.34h-.11v-.15l0-1L13.09,159l0-.15.13-.33,2.09.64.78-.09.59.49-.12.1.51.16-.95,1,.73.22,2.22.36v-1l.24,0,.34.12.09,0h.56l.15-.23.17-.29.18.07.17-.08.13-.44,0,0,.75-1.43.21-.4.87-.75v-.48l-.1-1.83.06-.89-.09-.14.12-.12-.1-.18,1-1.13.6-.68.48-.51.48-.5.08-.09,0,0,.06-.06.05,0,.4-.39.27-.3,0,0,.44-.47.06-.08,0-.06v-.12l0-.1-.11-.14-.36-.33.05,0,1-.88,2.35-1.42.27-.23.31-.16.7-.43.67-.44,0-.11-.05-.09-.07-.12-.12-.18-.09-.11L31,143.6l-.2-.24-.19-.21-2.16-.84-1.29-.56-.27-.06-1.34-.75-2.26-1.54-2.1-1.72L23.5,137l.23-1.45,1.6-1.3.8-.72-.47-2.09-3.36-1.77L20.49,129l-2.2,1.24-3.21,2.6-.53.82-.24,1v.3L11,134.34l-1.17-.22-1-.15-.66,0-.3.12-.28.05-.06.15h0l-.42-.1-.06,0-1.45.93L5,135.2l-.14,0-.22,1-1.16.24-.76.16L1.56,137l.06.21.51-.13,0,.2v.11l.09.79.18-.15.93-.32-.11-.34.21-.06.37,1,.52-.25,0-.12.07-.14.48-.31.24-.2.1.22h0l-.17.39,0,0,.29-.19.22,0,.11.12.1.38.48-.27.36-.25.14-.06-.12-.36.34-.13v-.2l.26-.19.25-.14.31-.13.34.05.44.3.48.25h.25l.32.23.1.21,0,.15-.23.12-.06-.08.15-.19,0-.08-.11-.1L9,137.15v.09h0l-.07-.11L8,137.8v.1l-1.5.93-.53.23L4.66,140l.26.25.46.33.16.08.11,0v.09l-.19.09-2.17.07-.46.24-.25.19.32.48.24.24h.1l.51.22.16.15.21.43.21.16.2.24.19.39.16.53.27.3v.14H4.73l0,.15H4.53l-.59.22-.24.63-.85,2.22.45.26.14,3.41.42.23.2.12-.15-5.66,1.24.72,1.19.7L7,148l1.41.78,1.18.8,1.5,1,.28.14-.29.91-.48.59-.68.2-.12,0-.38.38-.42.76.27.15-.51.68-.27-.18-3.41,2-1.76-.55L3,155.56l-.5,3-.2.65,0,.09-.38.43.68.51.74.47.63.31.77,0,.8,0,.67-.13.72-.18m31.69-33.73,0-.25-1.29-.18-.79-.12.17-.84H36l.16-.3.11-.21v0l-.24-.14-.24-.14-.36-.38-.07-.07h0l-.15-.16-.25-.27-.46.54-.69-.28-.08,0-.49-.14-.13.38-.25.74-.64,1.74.51.47,0,.07,0,.54.08.45-.06.87-.13.64-.22,2,.14.05,0,.11.58.15.12-.49.26-.2.08.08.39.4.92-.82.48-1.27h.16l.26-.74-.61-.38.11-.68.27-.49.36-.67.2.07.39.05,0-.33,2,.32" fill="none" stroke="#29a6ff" stroke-linejoin="round" stroke-width="1.5" fill-rule="evenodd"/><path id="81e6752f-ffe8-45c7-b329-d481d6be51ec" data-name="ЮЗАО" d="M138.2,339l-1.51,1.84-.07.41-.53,3,0,.81-.1.42-.2.76-.17.95-.58,3.36h0l-.09.43-.06.17,0,.18-.11.64-.34,2.15h.05l-.63,3.56.29.57-.13.58-.54,3.26-.15.87-.71,3.33-.19,0-.17,1v.33l-.68,3.87.29.28,1.5,1.36,1.57,1.48.14.74,1.39,1.35.48,1.29.41.51.61.78.4.51V380l.26.09,2.22,2.42.44.43-.06.44-.41,1.26-.53.6,1.08.89,2.71,1.66-.74,1.17-.21.5.74,1.17,0,.31-.65.5-1.34,1.09.11.91-.74.62-.8.66-.83.9-.68.14-.1,0-.56-1-1.06.71.45.83.06.93-3.52-2.51-2-1.41-.3-.21h-.22l-.05,0,0,0,0,0,0,0-.52-.42-1.51-1.13-.08-.06-.09-.06-.07-.06,0-.05-.05-.07,0,0,0,0,0,0,0,0,0,0,0-.05v0l0,0,0,0v-.14l-.42-.07-.17-.78,2.54-14.53-1.36.16-1.81.19-1.35.08-.73-.33.33-2.72-.73-.13-.27,1.72-.33-.07v0L124,375.4l-.74,1.11-.22.41-.16,0-1,.88-.23.21-.86.38-.1.06-.4.18,0,0-.09,0v0l-.06,0v0l-.09,0v.07l-.86.2-.67.16-.13,0h-.24l-1.82-.06-.07.62,1.55,1.14,1.45.67.24.11.16.05-.11.39-.56,3.13-.61-.1-1.54-.25-.21,1.16-.46-.07-.06.34-1.36-.18-.68-.09-.27.66-.35-.12-.59-.46-2-.95-.82-.1-.66,2.43-1.36-.91.13-2.09.09-1,0-.49.95-.1.93-.06.12,0,.29,0,.14-.64.16-.4.35-1.37.33-.23.51-.48.14-.1.34,0,.37-1.14-.18-.07v-.08l-.28-.31,0-.07-.45-.77-.45-.36-.26-.16-.2-.29.06-.29-.07-.38-.33-.65-.18-.35-1.18-.67L108,372.38l-1-.55-2.25-.37-.24-.18-1-.54.08-.34,0-.78v-.08l0,0v0l0,0v-.11h0v-.05l0,0,0-.06v0h0l0-.07h0v0l0-.05h0v0h0v0l0,0v-.1h0v0h0l0-.05,0-.09h0v-.08l0-.1v-.22H103v0l0,0v.17l0,0,0,0h0l0,0h0l0,0h-.07v-.18h0v0h0l0,0h-.05l0,0,0,0,0,0h-.09v.08h-.07l0,0,0,0v0l0-.05h-.08l0,0h0v-.06h0v0h-.11v0h-.1l0,0h0l0,0,0,0h0v0h-.33l-.09,0h-.17l0,0h-.05v0h0v-.06h-.38v0h-.2l0,0h-.26v0l0,0v0h0l0,0h0v.05H100l0,0,0,0h-.14l0,0,0,0h-.06l0,0-.05,0-.06,0-.08,0h-.27l0,0h-.37v0l0-.06,0,0h0l-.05,0h-.07l0,0v-.06h0v0l0,0h0v0h0l0,0,0,0h-.1l0,0,0,0v0l0,0h-.15l0,0,0,0,0,0,0,0h-.15l0,0h-.05l0,0,0,0v0h0v0h0v0h0l-.06,0h-.11V367h-.17l0,0,0,0,0,0,0,0v-.08h0v.09h-.09v-.1h-.09l0,0v.1h0l-.06,0-.08.09-.06,0-.07,0-.1,0-.12,0-.07,0-.07,0-.22.14-.11.05-.07,0,0,0h0v-.08h0v-.15h0v0h0l0,0,0,0-.06,0h-.06l0,0v.05h-.08V367h-.14v0h0v0H95.2v.12h0l0,0,0,0,0,0H95l0,0h0v-.1l0,0v0h0v0h0l0,0h-.08v-.06l0-.08v-.12h0v-.23h-.2l-.06,0-.07,0-.07,0-.07.05-.07.06-.06,0,0,0-.2.12-.14.09-.14.09-.09.05-.07.05-.07,0,0,0,0,0,0,0,0,0h-.07l0,0h-.15l0,0,0,0,0,0,0,0H93l0,0h0v.05h-.14v0h0l0,0v0l0,0v0h-.08l0,0,0,0h0v-.14h0l0,0,0,0,0,0v-.13h-.11l-.07.05-.07,0h-.08l-.14-.11,0,0h-.15l0,0,0,0,0,0h-.19l-.09-.06h-.1l0,0v0h0l0,0,0,0,0-.07,0,0v-.08h0v-.06h0l-.06-.08V366l0,0h0l0,0h0l0,0h0v0l0,0,0,0v-.07l0,0h0l0,0h0v0l0,0h0l0,0-.07,0h0l0,0,0-.06h-.11l-.07.05,0,0h0v-.07l0,0h-.14l0,0,0,0,0,0v0h0l0,0v-.05H90.1l0,0h0v-.16H90l-.06,0h0l0,0-.07.07h-.07l-.1,0h-.08l0,0-.05,0h-.13l0,0v0h0v0h-.23l0,0,0,0-.05,0,0-.07,0,0,0,0h-.05l0,0,0,0h0l-.08-.06v-.2l0,0v-.06h-.12l0,0,0,.05,0,0,0,.07,0,0v.08l0,0,0,0-.12.07,0,0H88l0,0-.05-.05,0,0h0l0,0H87.6l-.07-.09,0,0,0,0,0,0h-.19l0,0-.18.06-.08,0h-.05l-.06,0h0l-.06.05,0,0,0,0,0,.05,0,.09,0,0-.06.07,0,0,0,0-.11.06-.06,0-.07,0-.06,0,0,0,0,0,0,0,0,0,0,0-.06,0-.08,0,0,0h-.14v.24h0l0,0h0l0,0-.06.07,0,0v0l0,.08v.41l0,.1,0,0v.13l0,0,0,0-.09.06,0,0h-.25l0,0,0,0,0,0,0,.05,0,.06,0,.05,0,0,0,0-.06,0,0,0h-.09l0,0-.08.05,0,0,0,0,0,0,0,0,0,0,0,0H84l-.06,0H83.8l0,0h0v-.05l0,0,0,0,0,0h-.18l0,0h0l0,0h0v0l0,0,0,0,0,0h0v.05h-.1l0,0h-.28l0,0,0,0-.05,0-.07-.06,0,0h0l0,0h-.08l0,0h0l0,0,0,0v-.08l0,0,0,0,0-1.06,0-1v-.63l0-1v-.2l0-.61-.28-.45-.09-.24-.06-.2,0-.5.1-.52.29-.57v-.52h0l-.1-1.63.33-.13,0,0h0l.63-.26h0l2.17-.9,0,0,.92-.38.47-.22.31-.14.21-.09.62-.1v-.16h.13v.1h0V356l0,0,0,.06.39.08,0,0,1.09.16,1.16-.18.09,0,.56-.25,2.81-1.13,3.29-1.33.12-.06,1.61-1.73,1.62-3,1.67-1.46.1-.09,1-.77.53-.41.12-.08.81-.63,1-.75,1.55-1.21.29-.32,3.52,1.33,4,1.4,1.89-.51.12-.49.19-.79h0l.9-.42.23-.13.13-.06.1-.3.29-.86.59-2.6.13-.82.16-1-1.34-.31-.8-.92.07-.33,0-.25.56.07.37-.11.31-.34.14-.74.15-1-.13-1.34-1.61-.59-1.08-.51.47-.86-.66-.4h0l-.26,0-.4.43-.77-.23-.4-.46h0l-1.44-.31-.17-.46-.68-.46h0l-.41-.08-.39-.07-.17-.6v-.05l.37,0H112l.75-.06v0l0-.91.22-1.4h0l-.59.11.27-.68h0l-1.17-.49.87-1.92.89.22.25.06,0,0-.14.12.06.18.48.24.27,0,.22.07.63-.07.72.14,1.05-.55,1.48-1.09.08,0,0,0-.06-.05,0,0,0,0,0,0-.06-.09v0H118v0h0v0h0l0,0v0l0,0v0h0v0h0v0h0v0h0v-.05l0-.05,0,0v0l0-.06v0h0v0h0l0,0,0,0h0v-.06l0-.07v-.05l0-.06v0h0v-.06l0,0v0h0v-.16h0l-.06,0,0,0h0l0,0,0,0,0-.05,0,0v-.07h.06l0,0,0,0,0,0v0h0l0,0,0,0h.07v0h0v-.13l0-.05v-.06h0l0,0h0l0,0h0v0h0v0h0v-.09l0,0h-.13v0l0,0h0v0h0v-.06h0v-.06h-.2l0,0,0,0,0,0,0,0-.08-.09-.07-.1v-.1l0,0h-.06l0,0,0,0,0,0-.07,0-.07,0-.07,0-.09,0-.09,0H116l0,0h0v-.18l0-.16V318l0,0,0,0,0,0v-.05l0,0h-.06l-.16,0h0v0h0v-.08h0v0h0v0h0v0l0,0,0,0v0h0v-.07l0-.05.07-.09.59-.67.07-.1,0-.06-4.1-1.73-4-1.69h-.07l-.06,0-.06.11-.1.2-.23.52,0,.06-.08.07-.13.05-.21,0-.11-.05-.11,0-.05,0,0,0-.23-.1.08-.17,0-.15v-.13l0-.15,0-.09-.17-.45-.06-.12h0l-.08-.13-.06-.08-.05-.07-.08-.1v0h0l-3.93-1.72-3-1.65-.16-.14-.18-.16-1.18-1-1-.92-1.48-2L95,303.8l-.16-.22-.31-.47,0,0-1.54-2.35-.36-.53-1.64-2.53h0l-.19,0h-.29l-.08-.05-.09-.07,0-.1-.06-.09-.06-.1L90,297l-.13-.2-.11-.16-.09-.13-.07-.05h0l0,0-.07-.09-.11-.06-.12.1-.12.08-.11.1-.12.16v0l-.05.06,0,.09,0,0,0,.08-.07.11,0,.12,0,.13-.06.15-.07.15-.12.37-.22-.09-.23-.11.09-.24,0-.15.08-.2,0-.11h0v0l0-.1.06-.19.07-.19,0-.13,0-.08.11-.54,0-.42,0-.09,0-.14v-.82l0-.22,0-.15,0-.13,0-.2-.57-.92-.09-.11-.63-.95-.36-.5-1.88-2.65L83,285.67l-1.85-2.82-2.09-3.16-.91-1.4-.32-.85-.41-.66-.63-.53-.08.05-.35-.53v0h0l0-.07-.85-1.29h0l0-.15h-.07l-.53-.81-.08,0-.1-.05-.1,0-.18,0-.18,0-.15,0-.15,0-.17,0-.15,0h-.31l-.09,0-.1,0,0,0-.06,0-.14.1-.15.11-.13.1-.14-.15,3.84-3.1,7-5.8,2-1.65.08-.07,6.23-5.18,2.9-2.46,2.34-2.77,1.16-1.36,5.35-6.39,1.94-2.37-.06-.05-.15-.1-2.33-2-2.2-1.83-1-1-.22-.24,8.83-8.69,2.73-2.7.4-.39,4.67-6.12,3.77-4.93,1.37-1.77,1.06-1.42.85-.05,2.11-.36,2-.73,2.55-1.28,1.29-.93.87,1.07,1.06,1.37.24.3.61.81.39.45.55.6,1.6,1.43-.48.49-.1.1-.09.09.15.23,0,.1.09.15.28.57.66,1.36,1.31,2.76.31.66.37.74.4.83.18.35.28.6.16.34.17.29.27.49.21.33.28.41.17.24.21.32.13.21.19.27.21.31.35.48.27.38.14.17h.21l.3.28.33.3.24.2,0,.09-.11.15.24.24.23.23.12.2.17.35,0,.12,0,.17,0,.31V230l0,.3-.07.35,0,.29,0,.27v.28l0,.23,0,.22.12.32.1.2.12.2.14.17.2.21.15.13.2.14.22.11.24.1.23,0h.36l.27,0,.36-.07.35-.09.33-.09.25-.08.27-.09.26-.08,0,.23v.16l0,.28.06.29,0,.14,0,.07,0,.07,0,.06.06.07,0,.08,0,.07v.22l0,.24.05.13v.09l0,.09v.16l.11.57-.09.24,0,.08-.11.1-.16,0-.17.34-.27.29-.27.32-.15.26-.16.13-.14.18-.12.23,0,.2,0,.15,0,.34-.05.17-.06.09-.19.06-.2.06-.14.09-.07.12,0,.08-.24.1-.09.12-.06.05-.08.1-.08.25-.12.17,0,.11.06.19v.1l-.11.09-.13.23-.17.21-.18,0v.15l-.07.26-.15.26-.41.54,0,.13-.07.22,0,.34,0,.32.19.31-.1,1.11.05,1.25.44.62,1.75,1.39.46.36-.3.39-.1.15v.16l0,.1-.12.19-.31-.16-.14,0-.43.08-.36.54-.1.16-.1.19,2.85.51,0,.05,0,.08-.11.17-.86,1.3-.4.59-.14.19-.14.2-.88,1.28,0,0-.57.82-.5.75-.1.2-.08.17,0,.07v2.94l0,1.72,0,3.12v5.14l-5.2-.51-.15,0-1.36-.19-.7-.18-.39-.15-1.35-.73-1.88-1-1.1-.59,0,.19v.16l-.14,0v.11l0,.84-.3.18,0,.69.68.4.63.94-.05.2v.08h-.32l.17.79.19.12,0,.08,0,.07-.05.09-.21.06h-.08l0,.45.2.23.17.19-.29,1.07h0l-.27-.07-.13.39-.1,0,0,.15-.1,0-.23.47.36.09-.21.3-.42-.19-.07.11,0,.08-.07.13-.12,0-.32.53-.17,0-.1.21-.08.08-.07,1.43,3.15,1,.68,0,.27.06.09.21-.06.26,0,.21-.13.51-.06.19-.06.22V280l-.06.17-.28.19-.21.26,0,.2.06-.11.16.07.07-.24.1,0-.06.32-.08.36-.14-.06h-.18l0,.18.08.17.08-.05.13-.08,0,0-.16.87h-.07l-.07-.17-.12,0-.08.5-.09,0-.1,0-.17.71,0,.2-.17.31-.19.18.15.19-.17.1-.29.15.19.19.07.18-.1.21.08,0,0,.09-.14.18.06.1.27-.35.2.07-.66.86-.35.38h-.11l-.09.07-.1,0-.12-.09v-.08l-.24-.14h-.13l-.08-.1-.16,0,0,.13.26.26h-.12l-.25-.12-.07.14-.49-.19-.25.18-.21.28-.19.34-.24.41-.15.42.12.19.33.12.62.32.17,0H131l.16-.08.48-.63.3.22.47.38,0,0-.48-.31-.36.61-.11.18-1.21,2.77.85.54.18.1-.14.19-.12.17-1.39.93.28.51.23.3v.41l-.05.69-.43,1.84-.21.11-.3.28-.16.05h-.62l-.14-.05-.36-.12-.5,0,0,.34,0,.3,0,.13.06,0,0,.13v.11l.12.08.56.37.27.62.84,0,.18-.6.1,0,.34,0,.41.29,1,1.61h1.8l.09.73-1.19,2.09-.19.15-.58.58-.08.12-.22.43-.17.2-.1.54,0,.42.11.24,1.88.1-.05.2-.13.53,0,.92-.61-.08-.17.55v0l-.11.34-.09.52-.13.5,0,.39-.16.64-.06.28-.13.33v.38l-.07.33,0,.51,0,.33,0,.47.36.08-.06.43-.13,0-.15.53-.06.17.13.36v.19l.19.2v.54L130,318.6l-.88,1.46.07.14v.14l0,.15-.08.17-.31.45,2.5,1.05,4.09,1.72,1.65.69.53.55.15.14.16.26.12.19.07.13.13.31.15.31.42,1,.19.51.43,1,1.06,2.29.17,1,0,.86.44.22,1.87.2.62,1.52-.43.37-.71.58-.13.12-.21.14-.13.07-.42.18-.25.12-1.58,1-.62.52-.36.42-.43.45" fill="none" stroke="#29a6ff" stroke-linejoin="round" stroke-width="1.5" fill-rule="evenodd"/><path id="adf2f498-8c8c-4796-8863-1e792cce3140" data-name="ЮАО" d="M142.85,333.5l-1.87-.2-.44-.22,0-.86-.17-1-1.06-2.29-.43-1-.19-.51-.42-1-.15-.31-.13-.31-.07-.13-.12-.19-.16-.26-.15-.14-.53-.55-1.65-.69-4.09-1.72-2.5-1.05.31-.45.08-.17,0-.15v-.14l-.07-.14.88-1.46.94-2.06V316l-.19-.2v-.19l-.13-.36.06-.17.15-.53.13,0,.06-.43-.36-.08,0-.47,0-.33,0-.51.07-.33V312l.13-.33.06-.28.16-.64,0-.39.13-.5.09-.52.11-.34v0l.17-.55.61.08,0-.92.13-.53.05-.2-1.88-.1-.11-.24,0-.42.1-.54.17-.2.22-.43.08-.12.58-.58.19-.15L133,302l-.09-.73h-1.8l-1-1.61-.41-.29-.34,0-.1,0-.18.6-.84,0-.27-.62-.56-.37-.12-.08v-.11l0-.13-.06,0,0-.13,0-.3,0-.34.5,0,.36.12.14.05h.62l.16-.05.3-.28.21-.11.43-1.84.05-.69v-.41l-.23-.3-.28-.51,1.39-.93.12-.17.14-.19-.18-.1-.85-.54,1.21-2.77.11-.18.36-.61.48.31,0,0-.47-.38-.3-.22-.48.63-.16.08h-.11l-.17,0-.62-.32-.33-.12-.12-.19.15-.42.24-.41.19-.34.21-.28.25-.18.49.19.07-.14.25.12h.12l-.26-.26,0-.13.16,0,.08.1h.13l.24.14v.08l.12.09.1,0,.09-.07h.11l.35-.38.66-.86-.2-.07-.27.35-.06-.1.14-.18,0-.09-.08,0,.1-.21-.07-.18-.19-.19.29-.15.17-.1-.15-.19.19-.18.17-.31,0-.2.17-.71.1,0,.09,0,.08-.5.12,0,.07.17h.07l.16-.87,0,0-.13.08-.08.05-.08-.17,0-.18h.18l.14.06.08-.36.06-.32-.1,0-.07.24-.16-.07-.06.11,0-.2.21-.26.28-.19.06-.17v-.12l.06-.22.06-.19.13-.51,0-.21.06-.26-.09-.21-.27-.06-.68,0-3.15-1,.07-1.43.08-.08.1-.21.17,0,.32-.53.12,0,.07-.13,0-.08.07-.11.42.19.21-.3-.36-.09.23-.47.1,0,0-.15.1,0,.13-.39.27.07h0l.29-1.07-.17-.19-.2-.23,0-.45h.08l.21-.06.05-.09,0-.07,0-.08-.19-.12-.17-.79h.32v-.08l.05-.2-.63-.94-.68-.4,0-.69.3-.18,0-.84v-.11l.14,0v-.16l0-.19,1.1.59,1.88,1,1.35.73.39.15.7.18,1.36.19.15,0,5.2.51v-5.14l0-3.12,0-1.72v-2.94l0-.07.08-.17.1-.2.5-.75.57-.82,0,0,.88-1.28.14-.2.14-.19.4-.59.86-1.3.11-.17,0-.08,0-.05-2.85-.51.1-.19.1-.16.36-.54.43-.08.14,0,.31.16.12-.19,0-.1v-.16l.1-.15.3-.39-.46-.36L145.13,247l-.44-.62-.05-1.25.1-1.11-.19-.31,0-.32,0-.34.07-.22,0-.13.41-.54.15-.26.07-.26v-.15l.18,0,.17-.21.13-.23.11-.09v-.1l-.06-.19,0-.11.12-.17.08-.25.08-.1.06-.05.09-.12.24-.1,0-.08.07-.12.14-.09.2-.06.19-.06.06-.09.05-.17,0-.34,0-.15,0-.2.12-.23.14-.18.16-.13.15-.26.27-.32.27-.29.17-.34.16,0,.11-.1,0-.08.09-.24-.11-.57v-.16l0-.09v-.09l-.05-.13,0-.24v-.22l0-.07,0-.08-.06-.07,0-.06,0-.07,0-.07,0-.14-.06-.29,0-.28v-.16l0-.23-.26.08-.27.09-.25.08-.33.09-.35.09-.36.07-.27,0h-.36l-.23,0-.24-.1-.22-.11-.2-.14-.15-.13-.2-.21-.14-.17-.12-.2-.1-.2-.12-.32,0-.22,0-.23v-.28l0-.27,0-.29.07-.35,0-.3v-.31l0-.31,0-.17,0-.12-.17-.35-.12-.2-.23-.23-.24-.24.11-.15,0-.09-.24-.2-.33-.3-.3-.28h-.21l-.14-.17-.27-.38-.35-.48-.21-.31-.19-.27-.13-.21-.21-.32-.17-.24-.28-.41-.21-.33-.27-.49-.17-.29-.16-.34-.28-.6-.18-.35-.4-.83-.37-.74-.31-.66-1.31-2.76-.66-1.36-.28-.57-.09-.15,0-.1-.15-.23.09-.09.1-.1.48-.49-1.6-1.43-.55-.6-.39-.45-.61-.81.06,0,.25-.17.55.18.56-.18,0,0v0l.06.05,0,0,0,0,.06,0,1.31-1.71,0,0-.18-.14,0,0,.26-.38L136,208l1-1.19.27-.35.08,0,.5-.65.09.06.37-.42-.05-.08h0l0,0,0,0-.41-.37-.44-.28,0-.07.29-.41,0,0,.34-.37,0-.52.24-.21h0l0,0,.07.06-.17.14,0,.22.73.7.81-.93.05-.06.45-.51,0,0,.19.14.12-.15.3.25,1.05-1.24.06,0,.12.05.38.16h0l.39.14.5.18.82.29.06,0,.06,0,.63.23.15.05.12,0,.86.28.17.06.17-.78.14-.63.06-.25h.06l.4.06.42.06.09,0,.94.14,0,0,0,0,0,0,0,0,.16.23.09.12.24.32,0,.08.08,0h.05l.56-.08.18,0h.1l.09,0h.07l.58-.13.29-.07.26-.06.52-.13h0l.39-.1h.12l.08,0,.48-.07.11,0h.13l.77-.11.55-.07.18,0,.21,0,.12,0,.88-.35.24-.09.43-.18.14-.06.06,0,.15-.07.6-.28.3.11.15.06.17.07.65.23,0,0,.07-.26.06-.25,0-.06.07-.33.05-.25v-.15h.12l.25.07.25.08.09,0,.15,0,.07,0,.35.12.34.12.1,0,0,0,.44.26.1.07,0,0,.17.18,0,0h0l.06,0,.07,0,.47-.11.19,0h.16l0-.19.09-.72,0-.15v-.32l.13-1.15,0-.26,0-.33.18-1.53V196l0-.06.3-.71,0-.1.14-.31,0-.1.17.07.33.15.43.2.13.06.26.11.15.07.37.17,0,0,0,0,.1,0,.07,0,.07,0,.11.05h.1l.08,0,.21.1h.09l.16,0,.08.11.94-.66.75,1,.21.45.25.62,1.46-.18,1.07-.09.19,0,.16,0h.19l.14.64.09.67,0,.28,0,.28v3.14l0,1.6,0,.46,0,.28.13.61.51,2.86.42,2.43.11.61.07.34,0,.25.45,2.43.07.32.18,1.1-.12,1.82-.1,1.6,0,.45,1.76.2.95.7.75,1,2.17.27,2.7.69,1.86.68,3,1.05,6.14,1.77,2.18,4.1.13,3.23-.21,2.84-1.93,1.89-.33.26L192,239.15l-2.12,1.26-1.44.7-2.23,1.09-.94.46-1.6,1.78-2.39.45-.26.17-1.8,1.17-1.49,1.19-.86,2.17,0,.26-.37,2.4-.36,4.59,0,.18,0,.5.06,1.22.46,1,.94,1.23,1.67,1.55,5.24,4,1.9,1.19.75.46,2.37,1,6.66,2.27,6.33-1,1.23-.2.22,0,7.62.84,2-.62,8-4.1.34-.15.22-.09,5.69-2.44.28-.12,1.75.17.9,1,.09,1.89-.33.86-.48,1.28.21,3.63.37,4.3.8,2.56,1.47,3.83,1.33,1.73.49.64-.69.68-.06-.12-1.78,1.58,0,.06-.73.61-.89.84-.06-.06-.42.41-.06.06,0,.06,0,.09v.09l0,.12.08.12.09.07.1.07.15,0,.13,0h.13l.12,0h.16l.14,0,.09,0,.13,0,.09.08.13.12.09.08,0,.05-.1.21-.09-.09-.21-.06-.25,0h-.49l-.58,0-.11,0h-.17l-.11,0H229l-.51.47-.23.21-.06-.05L226.35,293,224,295.37l-2.2,2.23-.8.76-1,1-.36.3v.09l-.57.54L217.25,302l-1.66,1.55-1.49,1.17-1.07.8-.86.64-2.65,2-2,1.5-1.64,1.25-.16.2-.13.19-.09.15-.1.18,0,.17,0,.18,0,.18,0,.18,0,.16,0,.16,0,.18v.54l0,.11.05.15,0,.11,0,.08,0,.08.08.11.11.13-.3.31-.31-.26-.13-.1-.06-.07-.14-.14-.1-.08-.1-.09-.09,0-.66-.13-.24-.05-.67-.13h-.3l-.52.38-.36.26-.22.16-2.11,1.53-1.68,1.13-.08.09-.21.13-1.25.79-.76.48-.61.4-.89.58-.35.23-.62.41-.76.5.05.08-.63.4-.06-.08-1.14.74.06.11-.37.24-.42.26-.17.11-1.26.86-1.8,1.17-.06,0-.15.21-.07.1-.09.12-.06.17v.19l0,.17,0,.15,0,.14,0,.13,0,.14,0,.2,0,.13,0,.13v.44l0,.14,0,.15v.12l0,.09,0,.08v.29l0,.1,0,.15V328l-.39.43-.07-.14-.07-.16-.06-.14,0-.08-.08-.08-.16-.14-.14-.09-.09-.08-.14-.08-.2-.09-.16-.06-.12-.05-.23-.08-.14,0-.21-.06-.22-.06L183,327l-.14,0h-.18l-.13,0-.16,0-.72.33-1.13.64-2.24.7-2.56.36h-2.09l-1,0-.42,0-2.1-.22-1-.17-.51-.05-.61-.06-.31,0-.35.18-.16.07h-.81l-.08,0-.06.07,0,.09-.12-.08,0-.08v-.07l0-.13-.06-.11,0,0-.11-.07-.17-.05-1.92-.2-1.55-.16-2.24-.23-1.31-.14v-.09l-1-.08v.07l-1.05-.11,0,0-1.1-.12,0,0-2.46-.25-2.62-.29-2.27-.23-1-.09-2.21-.22-.46-.05h0l-.22.13-.15.11-.14.14h0l-.14.14h0l0-.05,0-.24-.06-.07,0-.1-.06-.12-.07-.09-.24,0-1.37-.12-.44.4-.44.41-.08.09-.18.24-.05.08,0,.05v.12l0,.19.05.19.07.35,0,.1,0,.08,0,.12,0,.14.06.15.46.64.23.36.12.26.17,0,0,.14v.33l.11.44.06.49.06.57.28,1,.29.72" fill="none" stroke="#29a6ff" stroke-linejoin="round" stroke-width="1.5" fill-rule="evenodd"/><path id="2b4f9a6a-d06b-46a3-a97a-fb77bb4c1eb6" data-name="ЮВАО" d="M173.34,192.92l.21.09.28.27.3.3.11.27v.06l0,.1.09.27.11.29.17.48.07.22.43,1.29,0,.12.21.59.2.52,0,.08.07,0h0l.45-.16.23-.08.16-.07.58-.22,1.89-.73.18-.15.14-.22.12-.18.06-.1,0-.05,0,0,0-.05.79.5v-.08l0-.25v-.07l0-.18v0l.53-.07-.07-.48.9,0,.38-.44,0-.38.86-.07v-.06l-.19-2v-.4l.1.08.61.43.63.57,1.31,1.36.59.55.23.14.19.07h.32l.12-.19.27-.66.29-.76.29-.69.18-.4.24-.56.23-.51,0-.1h0l.54-1.28,0,0,0-.06,0-.13.19-.69.2,0,.26.06-.17-.36-.75-2.43-.4-1-.44-.77-.42-.53-.76-.73-.67-.56,0,0-1.16-1-1.43-1.17L183,180l-.53-.46h0l-.4-.34-.36-.26-.36-.23-.44-.22-.42-.19-.4-.16-.7-.22-.36-.11-.47-.14-.31-.09-1.39-.39-.37-.14-.3-.15-.31-.14-.25-.17.26-.34.37-.56.34-.49.22-.67,0-.45,0-.26-.12-.36-.11-.27-.1-.29-.28-.89-.16-.43-.28-1.11.09-.36.18-.28.47-.41.34-.14.43,0,.59,0,.65.09,1.43.12h.36l.35-.06.41-.14.38-.19.75-.63.59-1.07.3-.58-.13-1.15.05-.37.13-.28.56-1.18.55-1.22.29-.55.64-.61.88-.85.07.06,0,0,0,0,.09.06.18.16.52.54,1.33,1.34,0,0,.06,0h.16l0,0,0,0,.2-.24,0,0,.37-.4.07-.08,0,0,.11-.13.09-.1.47-.56.69-.76.35-.37.12-.09.16-.1.18-.11.16-.07.07,0,.19-.09.14-.1,0,0,0,0,.15-.23.07-.07.06-.07.13-.13.44-.36.37-.32.13-.11.33-.29.31-.27.28-.25,0,0,0,0,.07-.05.11-.1.07-.07,0,0,.06-.05.29-.28.35-.3,0,0,.07-.06.23-.2.2-.18.15-.12.14-.12,0,0,.06.16.21.5.85,1.91.17.44.32.92.19.48.23.47.85,1.63.22.47.15.34.11.35.08.37,0,.36v.44l-.06,1.56,0,.29,0,.27-.07.37-.11.36-.19.57-.08.27-.6,1.8-.12.42-.1.45-.08.43-.05.43,0,.44v.39l0,.47.07.48.11.44.12.39.16.41.21.46.22.36.06.11.27.43.13.16.13.16.25.29.23.24.26.25.3.25.3.21.39.24.42.23.58.27,4.63,2.19.2.09.41.19.46.23.45.26.4.3.4.32.35.34.3.33.35.42.42.54.63,1,.32.44.37.43.38.37.42.35.46.32.53.3.56.26.55.2.58.18.66.17,1.53.34.33.08.36.11.27.08.18.06.17.06.24.12.21.13.21.14,1.56,1.34.6.52.08.08.1.09.84.77.34.3,1.86,1.7.16.14.34.3.48.39.6.36.92.53,5.15,3.07,1.21.71.68.41,1.46.92,1.13.67.81.49,1.92,1.08,1.81,1.08,1.69,1,.71.42,1.53.93,1.9,1.14,1.51.89,1.65,1L254,211l1,.6.67.42,1.9,1.12.48.3.76.5.77.46,1.75,1,1.5.91.53.35v.21l2.29,1.95-.42.47,0,.07.26.22.24.2-.9,1-.18.2,1.24,1.19.76.93.23.31,1.58,1.89-.13.13-1.45,1.51,0,.07-.11.17,0,.08-.19.31.08.08,1,1,.77.84.39.43v.78h0l-.67,2L267,236.1l-.26.9-.14.46-.31,1-.06.17-.27.74-.76.92-.16.24,0,0-3.46-2.86-1-.8-.88-.66-1.12-.82-1.51-1-1.05-.74-.58-.38L255,233l-.23-.05-.34,0-.62.22-.29.31-.12.32,0,.2v.32l.15.69.28,1.13.18.73.17.8.12.59.08.45.09.48.05.24.06.24,0,.24.05.26,0,.24.1.48,0,.25.05.25.12.57.08.4.13.57.15.7.19,1,.26,1.24.1.52.12.55.2,1,.21,1,.21,1,.06.33.06.29.06.41.06.4,0,.42.05.39,0,.44,0,.41v1.62l0,.55,0,.24.29.11.24,0,.18.23v.47l-.1.49-.05.24-.16.74,0,.06.13.12-.06.13-.78-.28h-.12l-.08.05-.1.19-.25.85-.31.82-.25.56-.1.22-.34.73-.11.24-.13.24-.32.59-.11.16-.4.52-.94,1.19-.6.68-.59.67-.36.38-.21.29-.21.26-.15.12-.16.12-1.21,1.44,0,.07-1,1.44-.06.09v0l0,.1.13.1.11.1.09.09.09.1.1.08.09.09.09.11,0,.08v.21l-.07.13-.09.11-.09.13-.06.11-.28.3-.17,0-.1.07-.11.06-.11,0-.08,0-.13,0-.11-.08-.09-.07-.08-.06-.08-.05h-.17l-.67.1-.21,0-.1.05-.1.1-.34.4-.22.24L244.44,274l-1.73,2-.8,1-.15.28,0,.05-.44.51-.06,0-.57.59-.7.78-1.31,1.54-.3.35-.34.37,0,.2-.41.46-1.87,2.29-1.1,1.07-.49-.64-1.33-1.73-1.47-3.83-.8-2.56-.37-4.3-.21-3.63.48-1.28.33-.86-.09-1.89-.9-1-1.75-.17-.28.12-5.69,2.44-.22.09-.34.15-8,4.1-2,.62-7.62-.84-.22,0-1.23.2-6.33,1-6.66-2.27-2.37-1-.75-.46-1.9-1.19-5.24-4-1.67-1.55-.94-1.23-.46-1-.06-1.22,0-.5,0-.18.36-4.59.37-2.4,0-.26.86-2.17,1.49-1.19,1.8-1.17.26-.17,2.39-.45,1.6-1.78.94-.46,2.23-1.09,1.44-.7,2.12-1.26,1.19-1.22.33-.26,1.93-1.89.21-2.84-.13-3.23-2.18-4.1-6.14-1.77-3-1.05-1.86-.68-2.7-.69-2.17-.27-.75-1-.95-.7-1.76-.2,0-.45.1-1.6.12-1.82-.18-1.1-.07-.32-.45-2.43,0-.25-.07-.34-.11-.61L173,207.9l-.51-2.86-.13-.61,0-.28,0-.46,0-1.6V199l0-.28,0-.28-.09-.67-.14-.64V197l-.18-.68-.24-.67-.7-1.84,0-.08.06,0,.24-.1.81-.28.19-.06.12,0,.21-.08.16-.07.66-.14m134.32,9.2-.26,0L303.31,206l-2.71,0-1.37,0-.88.86-.06,2.52-.2.18-.41.74h0l-.69,1.34-.37.73-.32.61-.59.15-.69.16-5.87.52-.43.63.54,1.4.27,0,.7-.26,1,.14.42,1.15,0,.39.61.68,0,3.66.83.7,1.81-2,.21.06,2.58,2,.63-.73.26-.28h.22l6.12.17,0,1.2.06.08h-.36l-.48-.08L303,222.6l-2,.84-1.66.7-.16.3,0,.05-.17.35,0,.1.08.07-1.39,2.58-.59,1.15-.13.27-.36.4-1.84.47-.42.48-.17.53,0,.68-.26.27-1.65,2.24.49.28-.25,1.24,2.47.85.74,3.49v.25l3.19.16.48-.06,1.67.06.2,0,1.72.11,6.25.24.49.29.59.12,6,1.16.2-.21-.15-.45-.42-.4-.41-.2-.15-.21,0-.22.25-1.13-.05-.44,0-.2.13-.2.24-.22.31-.6.48-.59.06-.17,0-.21-.36-.41-.1-.32.05-.18,0-.38-.06-.16-.08-.09-.11-.39v-.42l.11-.18.11-.27v-.25l.08-.27-.05-.08v-.19l.09-.06,0-.15-.24-.32-.15-.12-.07-.38,0-.16,0-.06.14-.17.16,0h.33l.26-.05v-.1l0-.08-.09-.09-.14,0h-.31l-.17-.09v-.1l.16-.32v-.13l-.06-.14-.31-.13-.09-.07-.19,0-.29-.14-.22-.24-.1-.2v-.13l.15-.43,0-.05-.22-.18-.35,0-.18,0-.09-.08,0,0-.12-.07-.49.14-.12,0,.53-1.34.59-1.49-1.26-.91-.59.94h-1.16l.81-1.52-2.28-1.42-.52.8-.44.14-.19,0-1.08-1.32-.56-.16-.16-.22,0-.55.34-.28-.15-.88,1-.82,1,.07,1.88-.63,0-1.13.44-.6.19-.08.55.12.37.45-.23.94.48.2.92-1.48-.35-.29.73-1.33-.88-1.22-1.69-.85-.09.17-3.28-1.65,1.1-2.28,1.65.07,5.27,1.67.91-.56.38-.23,0-.23-3.29-3.06.39-.56,2.09-.58,1.1-.52.06-.18-2.58-.78-1.72-.38-.1-.15-1.32-2.07-2.4.16-.34,0-.19,0-.53-.1-.13-.07-.27.17-.88-.67" fill="none" stroke="#29a6ff" stroke-linejoin="round" stroke-width="1.5" fill-rule="evenodd"/><path id="8efd8c3e-d313-4d26-963c-50cbdb338aa9" data-name="ВАО" d="M257.2,132.48l.19,3.08.19,3.18.23,3.4.11,1.88.1,1.53.22,3.37.22,3.39.71.63.45.26h.15l.09,0,.15,0,1-.38.76-.24.23,0,.1.29L262,153l-.25.16-.27.17-.19.11-.13.09-.71.4-.24.12-.44.21-.18.47-.17.41-.59.56-.14.22-.06.28,0,.66.05.09,0,.16,0,.71,0,.24.4,1.21h0l0,.1h0l.3.83.22.67.16.54-.11.47-.25.08-.36.32-.29.27-.11.15-.05.17,0,.7,0,.78,0,1,0,1.4.07,0v.13h-.09v.29l0,1v.2l0,.65,0,.65v.17l-.05,1.64,0,1.06V173l0,0v.57l0,.49h0l0,.55,0,.27v1.05l0,.68v1.15l0,.32-.07,1.62.06.38.23.34.26.37.54.5.43.38.53.24.53,0,0,0,.82-.1.83-.12.74-.1.45-.06,1.3-.1,1.23-.08.65-.07,1.29-.28.48-.13.25-.11,3.89-1.33,3.2-1.12,1.45-.53.35.12,2,.64.17-.11.26.1.23,1.13.29,1.42.33,1.58.45,1.22-.27.09-.15.18v.23l-2-.86-1.07-.07-.89,0-.48.19-.31.22,0,.43-.14.48-.26.88-.15.5-.43,1.45-2.32-.25-2.25.74-.93.85.08.09-1.19,1.25.6,1.33,1.64.16.31.5.81,1.32h.16l.89,1-.6,1.65-.91.95,1,2.74h1.74l.44,1.51-.22,1,2.15,1.18.71.08.45-.14,1.29-.37.38-.57.1-1.18-.5-.61-.92-.88.63-.68,1,.37.7,0,.45.07.37,1.19.81-.75,2.91-.33.45,0v-.34l.41-.27.79-.07.28-.71.53-.07.74.2v.11l.19,0,.44.13h.69l1.94-.8.95-.71.59-.35.21-.41.34-.2.1-.39.26-.17.22-.93.28-.91,0-.09.3-.06H295l.31-.08.3-.06h.27l.46-.13.36-.18h.34l.22.15,0,0,.05.1.07,0,0,0,.15,0,.2.22H298l0,0,.44-.06.45.27.26.19.16.4,0,.09.06.06.16,0,.53-.11.14-.3.08,0,.22.08.24.33.27.19.49.39.64.7.32.2.31.21.35.22.61.21,0,.3.61.81.39.47.18.3.15.09h.09l0,0,0,0,.14.13.16.3.21.42.11.27.22.16.08.15v.05l0,0,0,.14v0h0l0,0v0h0l.07.29.15.09h.05l0,0,.05,0h0l0,0,0,0v0l0,0v0l0,.07.07.16,0,0,.06,0h.13v0l0,0h0l0,.06v0l.13.07v0l0-.15h.06l0,0,.21.23.28.32-.26,0L303.31,206l-2.71,0-1.37,0-.88.86-.06,2.52-.2.18-.41.74h0l-.69,1.34-.37.73-.32.61-.59.15-.69.16-5.87.52h-.76l-2,.31-2,.32-1.86.6-.23,0-2.84.25-.71.84-.71.85-.07,0-.33.39-.33.4-.09-.09-.39.52-.44.6.27.24,0,0-.78.49-1,1.17-1,1.17-1.15,1.23-.66.66-1.49-1.33-1.49-1.34-.22-.21-1.05-.94-1.26-1.15-.25.26-.28-.23L266,219l-.29-.22-2.29-1.95v-.21l-.53-.35-1.5-.91-1.75-1-.77-.46-.76-.5-.48-.3-1.9-1.12-.67-.42-1-.6-3.16-1.88-1.65-1-1.51-.89-1.9-1.14-1.53-.93-.71-.42-1.69-1-1.81-1.08-1.92-1.08-.81-.49-1.13-.67-1.46-.92-.68-.41-1.21-.71-5.15-3.07-.92-.53-.6-.36-.48-.39-.34-.3-.16-.14-1.86-1.7-.34-.3-.84-.77-.1-.09-.08-.08-.6-.52-1.56-1.34-.21-.14-.21-.13-.24-.12-.17-.06-.18-.06-.27-.08-.36-.11-.33-.08-1.53-.34-.66-.17-.58-.18-.55-.2-.56-.26-.53-.3-.46-.32-.42-.35-.38-.37-.37-.43-.32-.44-.63-1-.42-.54-.35-.42-.3-.33-.35-.34-.4-.32-.4-.3-.45-.26-.46-.23-.41-.19-.2-.09-4.63-2.19-.58-.27-.42-.23-.39-.24-.3-.21-.3-.25-.26-.25-.23-.24-.25-.29-.13-.16-.13-.16-.27-.43-.06-.11-.22-.36-.21-.46-.16-.41-.12-.39-.11-.44-.07-.48,0-.47v-.39l0-.44.05-.43.08-.43.1-.45.12-.42.6-1.8.08-.27.19-.57.11-.36.07-.37,0-.27,0-.29.06-1.56v-.44l0-.36-.08-.37-.11-.35-.15-.34-.22-.47-.85-1.63-.23-.47-.19-.48-.32-.92-.17-.44-.85-1.91-.21-.5-.06-.16,0,0-.09-.19-.31-.59-.84-1.56-.24-.38-.25-.36-.28-.35L194,152l-.24-.24-.26-.22-.3-.19-.49-.3-.41-.22-.36-.17-.09,0-.54-.24-.31-.12-.31-.09-.31-.07-.3,0-.3,0h0l-.16-.05h-.16l-1.14-.06-.26,0h-1.81v.08l-.86,0-.93,0-1.36-.53-1.6-.54-2.09-.74-1.23-.43-.31-.13-.25-.09-.24-.09-.86-.28-2.4-.77-1.65-.56-.63-.22-.71-.26-.49-.16-2.13-.73-2-.84-.34-1.18-.17-.76-.07-1.09,0-.41,0-.4,0-.3.4-1.48v-.4l-.09-.41-.08-.8,0-.75.07-.29.11-.9,1.51-3.41,1.57-3.35.15-.29.93-1.87,1.32-2.69.14-.3,1.43-2.92,1-2.06.24-.49.32-.93.29-1.07.23-1.1.07-.29.07-.36v-.06l.15-.66.16-.79.08-.53,0-.28V109.8l0-.39-.1-1.21-.12-1.43-.07-.89-.06-.77-.07-1-.05-.77-.07-1-.08-.91.25.09.65.2.37.06H177l.34,0,.36-.09.35-.14.3-.18.29-.23.23-.25.17-.25.13-.22.13-.35.08-.29,0-.3v-.35l0-.32.87-.56.54-.63,1.91-1.78.15-.14.42-.41,1.12-1.08.08-.08,0,0,.57-.59v-.09l0-.07.3-.6L186,91.6l-1.08-.78.91-1.18.25-.3-1.95-.83-.75-.5v-.23l.52-.61,0,0,.3.2.39-.58.4,0,.17-.16.07-.08.43.13.42-.09.3.29,0,.08-.09.11-.12.05-.1.16.17.14L187.2,89l-.09.32-.1.41v.08l0,.19-.1.36.67,1.38.71,1.74,3.24-.53.93.78,2,.28,1,.16h.13l.11-.07.05-.08.76.52L198,92.67l.43-.25.67-.57.35-.47-.06-.32-.07-.07.06-.06-.28-.28.76-.67.31-.61-.09-.38-1.54-5.68-.16-.54-1.43,0-2.14,0L190,82.35l.1-.28.59-.62.32-.32,1.14,1.33h2.06l-.1-1.33-.12-.54L193,79.77l0-.12.29-.41.29-.43.05-.06-.11-.16.64-.62,1-1,2-2,.28-.3,1.56-1.79,1.28-.63.35-.56.56.2V72l.2.12.1,0,.5-.3.61-.34.24-.09.13-.06h.1l.18,0,.06-.09.13-.18.1,0,.45-.11.17-.24,1-.24-.35-.87.06-.69.13-.1.57-.67.43-.47.34-.36.59.55,4.4,4,11.44,10.63,4.28,3.81,2.5,2.28,1.29,1.17,1.24,1.13.79.72,2.82,2.61,3.27,3,2.75,2.5,2.85,2.63,2.25,2,2.29,2.15,1.94,1.86,1.13,0,.19.21,0,.5v.49l1.08,1.35,1,1.37.8,1.49.63,1.48.35,1.3.14.89.1.52.05.18.22,2.43.31.34,1.05.58.35.06.28-.08.06.11.06.09,0,.06.07.11-.35.35-.76,1.26-.39.38-.29.31-.12.29v.1l.09,2.22.12,2.47.1,2.09.05,1m15.23-17.11-1.5.47v0l-.29.09.1.32-1.21.48,0,.07-1.87.71,0,.07-1.12.47-.27-.08-.13-.42-.78.34.27.67-.4.39,0,.36-2.14,1-3.62,2.7,2.15,2.64-.45.89.65.74.12-.1.11.11.29-.24.42-.11,1.84,2,.05-.05.12.52,2.07-1.28-.31-.76.11-.12.69-.1.54,1.18.21-.1,1.19,2.75h.4l2.22-1.8-.54-1.23,1.68-.8.26-1.7,1.55-.66.38,0,.4-.85.32-.72-.08-.18.17-.62.49-.1v-.22l.39-.37.23-.39,1-1h.58l.39.42.35-.31.5.5.11.23.36.17.19.26,1,.11.3.19.48.51.63.25.51.15.28,0,.31.07h.27l.35-.12.72-.67.23-.48-.07-.85-.4-1.11-.82-.68-2.35-.73v-.11l-1.22-.36-.52,0-.39-.87-1.35.1-.41.54-.15-.32-.88.43-.76.27-.39,0-.38-.27-.29-.65-.91.15-1.26.4-.75-2.13" fill="none" stroke="#29a6ff" stroke-linejoin="round" stroke-width="1.5" fill-rule="evenodd"/><path id="4864036b-9e13-4d7f-bd03-9cd33627facc" data-name="СВАО" d="M205.29,66.61l.91.76-.34.36-.43.47-.57.67-.13.1-.06.69.35.87-1,.24-.17.24-.45.11-.1,0-.13.18-.06.09-.18,0h-.1l-.13.06-.24.09-.61.34-.5.3-.1,0-.2-.12v-.17l-.56-.2-.35.56-1.28.63-1.56,1.79-.28.3-2,2-1,1-.64.62.11.16-.05.06-.29.43-.29.41,0,.12,1.06.81.12.54.1,1.33h-2.06L191,81.13l-.32.32-.59.62-.1.28,4.76.34,2.14,0,1.43,0,.16.54L200.05,89l.09.38-.31.61-.76.67.28.28-.06.06.07.07.06.32-.35.47-.67.57-.43.25-1.46,1.83-.76-.52-.05.08-.11.07h-.13l-1-.16-2-.28-.93-.78-3.24.53-.71-1.74-.67-1.38L187,90l0-.19v-.08l.1-.41.09-.32-.91-1.51-.17-.14.1-.16.12-.05.09-.11,0-.08-.3-.29-.42.09-.43-.13-.07.08-.17.16-.4,0-.39.58-.3-.2,0,0-.52.61V88l.75.5,1.95.83-.25.3-.91,1.18,1.08.78-.67,1.21-.3.6,0,.07v.09l-.57.59,0,0-.08.08-1.12,1.08-.42.41-.15.14-1.91,1.78-.54.63-.87.56,0,.32v.35l0,.3-.08.29-.13.35-.13.22-.17.25-.23.25-.29.23-.3.18-.35.14-.36.09-.34,0h-.31l-.37-.06-.65-.2-.25-.09.08.91.07,1,.05.77.07,1,.06.77.07.89.12,1.43.1,1.21,0,.39v1.25l0,.28-.08.53-.16.79-.15.66v.06l-.07.36-.07.29-.23,1.1-.29,1.07-.32.93-.24.49-1,2.06L172,122.59l-.14.3-1.32,2.69-.93,1.87-.15.29-1.57,3.35-1.51,3.41-.11.9-.07.29,0,.75.08.8.09.41v.4l-.4,1.48,0,.3,0,.4,0,.41.07,1.09.17.76.34,1.18-.66-.3-.66-.33-.26-.12-.24-.12-.35-.19-.34-.24-.36-.32-1.25-1.49-1.19-1.36-1-.91-.85-.62-.56-.5-.16-.13,0,.16-.1.81-.14,1.18v.27l0,.42v.43l.05.87,0,.33-.26,0h-.8l-.26,0-.17,0-.11,0-.11,0-.22-.07-.24-.07-.12,0-.06,0-.39-.12-.2-.06-.14,0-.12,0-1.61-.16-.56-.05-.52,0-.48-.05-1-.11-.58-.06-.28,0-.28,0h-.33v.18l0,.37v.15l0,.61V142l0,.44,0,.7v.11l0,.37,0,.65v.08h0v.08l0,.29V145l0,.46,0,.37v.33l-.05.25-.22.65,0,.07,0,.13-.1.27-.17.45,0,.2v.09l0,.07-.09.33v.18l0,.21,0,.17-.06-.17-.11-.29v0l0,0,0,0,0,0h-.06l-.67.06h-.05l0,0,0,0,0,0-.06.27,0,.06,0,.07-.07.15-.05.09-.06,0-.2-.11-.23-.13h0l0,0-.18-.11-.27-.14-.3-.17-.19-.11-.62-.38-.07,0-.31-.19-.07,0-.16-.09h0l-.21-.15-.16-.1-.15-.11-.43-.35-.05,0-.07,0h-.09l-.23,0h-.14l-.35,0H143l-.32,0-.08,0h-.06v-.07l0-.11,0-.27-.1-.38-.08-.36,0-.12-.12-.52,0-.24,0-.18,0-.19-.1-.49,0-.11-.08-.46,0-.11v-.06l-.11-.72h0l-.06-.42,0-.33-.07-.36-.08-.56v-.12l0-.06-.48.07-.5.08-.41.05h-.47l-.48-.07-.46-.08h-2.06l-.12,0-.3-.09h-.08l-.15,0-.61-.69-.39-.44-.34-.35-.09-.11,0-.06,0-.06,0-.07,0-.08,0-.08,0-.08,0-.07,0-.21v-.15l0-.3,0-.35,0-.81-.07-1.09-.12-1.23-.1-.93-.16-1.16-.16-1.15-.24-1.53-.27-.78-.28-.81-.26-.78,1.19-.28.57-.06h.19l-.15-.18-.37-.36-1.24-1-.3-.3-.4-.53-.14-.28-.08-.18,0-.15-.11-.37-.07-.44-.3-2.49-.11-.5L131,120l-.89-2.11-.54-1.3-.12-.35-.08-.37-.05-.37,0-.34-.15-5.42,0-1.24v-.63l0-.34,0-.31.06-.26.12-.4.14-.38.31-.58.43-.61.07-.09.08-.13.25-.34.31-.46.18-.35.16-.42.1-.3.09-.38,0-.28.05-.6v-.36l0-.35-.08-.5-.12-.51-.12-.34-.15-.36-.39-.72-.4-.69-.2-.42-.11-.29-.07-.26,0-.23-.1-.51-.25-1.26-.26-1.31-.06-.32,0-.27-.17-.9-.1-.67-.09-.68-.07-.8,0-.73,0-.81,0-.49,0-.35.06-.32L129,86l.34-1.48.09-.53.1-.57,0-.49,0-.58,0-.84-.13-.75-.2-.87-.35-1.52-.27-1.12L128,74.6l-.43-1.7-.23-1L127,70.49l-.39-1.71-.09-.51-.06-.6-.23-3.73-.09-1.63,0-2.36-.1-1.69-.07-.75-.14-.58-.19-.5-.23-.44-.25-.39-.3-.39-.33-.37-.47-.36-.41-.29-1.53-1-3-1.91L118.7,51,115,48.55l-.06,0-.59-.41-.25-.2-.34-.31-.24-.25-.28-.35-.3-.38-.35-.53-.26-.43-.18-.37L112,45l-.1-.26-.11-.35L111.44,43l.11-.42-.4-1-3.47-12.18-.58-2-.48-1.68-1.53-5.45-1-3.71-.54-1.82v-.18l-.38-1.23.27-.07,1.73-.49.05-.17,3.15-.69,0-.12,1.77-.38.92.45.53-.11.25-.05,1.57.06.41.12.34-.13-1.52-4.62-1.15-2.84,1-.37.77-.38.07-.18.58-.23.88-.35.91-.5.43-.2V1.92l.61-.15.2-.1.27.94.26.14.1.27L118,4.39l-.09.34-.06.24.22.59.63,0,0-.72-.12-.08,0-1.07H119l-.06-.22.36-.17.91,0v2l1.09-.63,4.5-2.51L129.52-.1l.16,1.3,1.77.5,1.09,1.38-.75.27.15.37.29,1V5L131.93,7l-4.68-.86h0l-.71,0-.11-.2L124.1,5.5l-.3.07.13,2.74.44,2.23.18,1.3.07,1,.12,1.21,1.47.19,1.22-.17-.1,4L127,17.9l-.75.13h-.71l-.29,2.68-.34.06-2,.86.06.81,0,1,0,1.37,0,.68-.07.58-.12.94-.4,2.68-.27,1.73-.21.74-.07.57-.28,2.39-.3,1.91-.45,2.55-.2,1.68,7-1.59,1.74-.22,2.13-.14.84.13.33.09,1.37.19,1.66.51.45-1.06.2-.28.39-.19.17-.2.18-.49.24-.6.11,0,.11,0-.07.26-.15.72-.11.31-.07.22v.26l.06.21.27.47.76,1.2.24.33.88.43,1.28.65.7.35,4.86,2.33,3.05,1.4.92.43,1,.43.88.35,2,.71.94.32.84.33h.1l.59.2,1.45.43,1.74.51.76.15,2.47.62,1.58.36,2.34.43,2.13.34,2,.26,1.16.14,1.39.12,1.44.08.18-.08.26-.2.7-.77.15-.28v-.2l0-.22.39-.09.09.36.09.26.06.07.48.34.19.12.85.78.35.09.86,0,.94,0,.73.12,1.34.08,1.82.1,2.58.18,2.13.46,2.08.8,1.62,1,.36-.06.08.06.12.1v.32l1.74,1.39L199,61l.21.19.24.21.61.53L201.45,63l1.51-.13,1.22-.91.72-.51.26.25-.4.47-.19.32-.23.33-.09.2-.1.19-.16.4-.05.16-.05.24-.11.5.11.4.12.44.32.39,1,.92" fill="none" stroke="#29a6ff" stroke-linejoin="round" stroke-width="1.5" fill-rule="evenodd"/><path id="f0a0efc2-b29f-4b2e-a02b-acae7b872232" data-name="САО" d="M97.13,153.54l-.13-.49,0-.21,0-.23-.15-1.22-.25-2-.26-1.87-.16-1.27,0-.14-.08-.68-.13-1,0-.19-.18-1.47-.07-.55-.21-1.66-.07-.36-.07-.32-.13-.49L95,139l-.21-.49-.31-.67-.34-.69-.16-.35-.13-.25-.12-.25-.41-.84-.13-.27-1.29-2.68-1.29-2.64-.71-1.46-.48-1-.73-1.56-.4-.81-.32-.72-.12-.28-.14-.47-.07-.25-.06-.33,0-.25-.06-.91,0-.21v-.06l0-.69,0-.62v-.47l0-.44.13-.78.22-.87L88,117l.45-.9.42-.65.2-.28.22-.28.59-.61.34-.33.34-.24-1.1-2.39-.06,0-.07,0-.08,0h0l-.16.07-.23.11-.53.26-.24.07-.49.06h-.38l-.3,0h-.07l-.63-.16-.36-.11-.33-.08-.7-.08h-.48l-.72.29-.19.07h-.11l-.08,0-.07-.11-.79-1.23,0,0-.22-.34-.66-1,0-.15,1.85-.4.38-.24-.06-.69-.21-.35-.35-.76-.77-1.22-1-1.44-1-1-.24-.51,0-.66.13-.71.26-.83,0-.54-.12-.67-.36-.53-.56-.29-.22-.38-.5-.31-.37-1-.66-.82-.63-.51-.45-.76-.25-.49-.21-.44,0-.75-.34-.85L75.19,91,75,90.32l-.08-1-.32-1-.17-1-.18-.88L74,85.33l-.27-.79-.27-1.09-.53-.87-.25-.88-.07-.82-.4-1.58L72,78.07l-.08-.86,0-1.16-.3-1.39-.52,0-.69-.18-1.2-.93-.64-.53-1.29-1.23L66.21,71,65,69.75l-.68-.58L64,68.59l-.06-.8,0-.36-.62-.87.48-.27.3-.16,1.13-.63.11-.1.08-.08.1-.09.06-.08L65.6,65l.05-.1,0-.08,0-.1,0-.1,0-.1,0-.16,0-.15,0-.12,0-.13,0-.16v-.49l0-.15,0-.09,0-.09-.06-.1.42-.28.06.07,0,.06.08.12.08.09,0,0,.38.42.06,0,.07,0,.15.06.14,0,.17,0h.11l.12,0,.15,0,.18,0,.4,0,.14,0,.12,0,.13,0h.47l.75-.07L72,63.61l.47-.15h3.48l.91-.21L78.07,63,80,62.18l1.15-.51,1.07-.48,1.92-1.25.1-.08.1-.07.09-.07.13-.11.12-.09.09-.07.11-.09.11-.08.1-.08.09-.07.1-.1,0-.05.06-.07,0-.09,0-.11,0-.12,0-.14,0-.14,0-.13.07-.17,0-.13,0-.13,0-.13v-.15l0-.18v-.2h.19l0,.14,0,.14,0,.15,0,.14,0,.11.05.06,0,.18,0,.15,0,.15v0l.06.2,0,.11.09.13.12.08.11,0,.1.06.1,0,3.13-2.08.2-.14.06-.11,0-.14.06-.13,0-.13,0-.13,0-.12.07-.16,0-.16.06-.11.07-.1.06-.08.1-.08.12-.07.1,0h.16l.18.05.13,0,.12.09.1.1L93,54.67l2.06-1.62,2-1.55.13-.1,5-4,1.1-.84,1.39-1.08.77-.58.74-.49.5-.27.43-.19.74-.26,1.16-.43.93-.3,1.56-.32-.11.42.37,1.36.11.35.1.26.12.28.18.37.26.43.35.53.3.38.28.35.24.25.34.31.25.2.59.41.06,0L118.7,51l.43.27,3,1.91,1.53,1,.41.29.47.36.33.37.3.39.25.39.23.44.19.5.14.58.07.75.1,1.69,0,2.36.09,1.63.23,3.73.06.6.09.51.39,1.71.34,1.44.23,1,.43,1.7.6,2.64.27,1.12.35,1.52.2.87.13.75,0,.84,0,.58,0,.49-.1.57-.09.53L129,86l-.26,1.16-.06.32,0,.35,0,.49,0,.81,0,.73.07.8.09.68.1.67.17.9,0,.27.06.32.26,1.31.25,1.26.1.51,0,.23.07.26.11.29.2.42.4.69.39.72.15.36.12.34.12.51.08.5,0,.35v.36l-.05.6,0,.28-.09.38-.1.3-.16.42-.18.35-.31.46-.25.34-.08.13-.07.09-.43.61-.31.58-.14.38-.12.4-.06.26,0,.31,0,.34v.63l0,1.24.15,5.42,0,.34.05.37.08.37.12.35.54,1.3L131,120l.14.42.11.5.3,2.49.07.44.11.37,0,.15.08.18.14.28.4.53.3.3,1.24,1,.37.36.15.18h-.19l-.57.06-1.19.28.26.78.28.81.27.78.24,1.53.16,1.15.16,1.16.1.93.12,1.23.07,1.09,0,.81,0,.35,0,.3v.15l0,.21,0,.07,0,.08,0,.08,0,.08,0,.07,0,.06,0,.06.09.11.34.35.39.44.61.69.2.23.2.26-.07.33-.08.44-.07.36-.07.43-.08.45-.09.91-.06.5-.07.5-.17,1.21-.06.39,0,.3,0,.25-.08.44-.07.39,0,.17,0,.17,0,.28-.06.31,0,.16-.05.27,0,.28-.09.38-.1.51-.12.45,0,.12-.06.16-.1.25-.1.16-.25.35-.07.1-.06.07-.18.22-.08.09-.08.09-.2.2-.05.05,0,0-.1.12-.11.12-.1.12-.17.18-.07.07-.1.09-.53.43-.91.66-.31.18-.35.16-.35.13-.36.07-.75,0h-.27l-1,0-2,.37-3.71.66-1.76.32-1.72.37-1.11.16-.73.06-.82,0-.94.1-.5.17-.73.33-.62.38-.78.71-.5.65-.37.51-.24.6-.19,1.44-.09,1.08-.64-.08,0,.17,0,.09-.15.43-.08.25-.13.19-.14.14-.22.31-.4.74-.08.09L109,166l-.89.67-.54.4-.1.07-.14.11-.5.38-.2.15,0,.05-.17.13-.39.38-.27.32-.32.2,0,0-.83-1.57-.29.15-.23-.43-.11-.22-.2-.38-.15-.27-.18-.34-.14-.25-.13-.25-.4-.75-.39-.74-.4-.73-.37-.69-.17-.32-.2-.36-.15-.29-.08-.15-.07-.13-.07-.12-.06-.12-.17-.32-.15-.27-.07-.14-.08-.15-.16-.3-.08-.15-.18-.33-.13-.25-.2-.36-.11-.21-.09-.17-.2-.41-.15-.25-.21-.39-.41-.75-.12-.23-.34-.7-.39-.83-.18-.42-.06-.17-.09-.26-.09-.3M41,38.09l2-1.41.19-.18.29-.46.25-.23,1.41-1-1.82-2.32L42.8,31l0-.36.26-.94,1.21-3,5.55,1.75,1.06-1-.17-1.68-.82-1.13-.35-.24,0-.19.81-.52.35-.69,0-.21-.16-.61.14-.44-.33-.95-.86-1.43,0-.1,0-.15-.28-1.48-.22-2,.51-.22L49.33,15l.37-.72,0-.22.14-.16-.11-.29.18-1.11.86-2.14,2.49-.43.3-.67.3-.17,1.2,0,.76-.43.12-.24-.21-1.92.52-.44.32-.93L56.12,5l-.27-.08h-.06l-.28,0-.23,0,0-.14,0-.2.14-.25.14-.12V4.09l-.26-.44-.15-.15L55,3.44l-.19,0-.16,0-.09,0-.29-.1-.28,0-.17-.07,0-.1V3.17l0-.16V2.88l-.17-.34-.15-.06-.14,0h-.24l-.17-.09-.21-.07-.22,0-.15.06-.12.12-.13.09-.06.12,0,.17.08.09,0,.09-.08.06,0,0L52,2.92l-.26-.06-.12,0L51.53,3V3l0,.09,0,.17,0,0-.1.1-.24.12h-.17L51,3.44l0-.11V3.12l-.12-.3-.15-.14-.11-.05h-.13l-.31.14-.26,0-.19.09-.14.37-.18.1,0,.23.1.13.09,0,.12-.1h.12l.12.07,0,.17-.07.1-.14.12-.07.26,0,.19,0,.24L49.44,5l-.11.1-.12,0-.12,0L49,5l-.14,0-.12.17-.2.13-.27.12-.32.09-.32,0-.27.15L46.63,6l-.15,0-.19,0L46.2,6l-.08.09-.12,0-.43.08h-.2l-.23.16-.31,0-.16.07-.57.23L43.71,7l-.1.09h-.15l-.32.22L43,7.4l-.13,0-.11,0h-.23l-.14-.06-.23-.17-.17-.19-.09-.16,0-.36-.06-.17,0-.43.07-.2.07-.08.46-.39.07-.27,0-.21-.06-.24-.13-.13-.12,0h-.09l-.33,0-.1.09-.57.15-.17-.07-.25-.21,0-.2.1-.22-.16-.23-.49-.17-.28,0-.17.08-.43.32-.14,0-.38-.27h-.26l-.68.22-.21.2v.24l.24.48.11.13,0,.16,0,.2-.14.13-.17.12-.37.15-.22,0-.25-.12-.66-.51-.91-.56-.68-.61-.06-.14L34,3.21l-.12-.16,0-.26v-.3l.08-.17.22-.17.28-.56L32.3,1l-6,.14-.59.28,0,.31.44.43-.28.05,0,0,0,0-.19.07-.16,0v.06l.17,0,.05,0-.21,0-.13.05.06.11,0,.08,0,.12,0,0h.06l0,0,.12.1.05.17,0,0,0,0,0,.14-.1.29-1-.31-.51,1.56-.66.47-.25-.11L22.82,5l0,0-.84-.84-.75.5-.9-1L20,3.14,20,3l0-.44.09-.32L20.25,2l.22-.27L21.85.32,21.55,0l-.34.24-.45.21-.31.1-.34.08-1,.13-.76,0L18,.61,17.71.4l-.27.22.38.5-1.12,1L14.57,3.17l.66,2.47.51.73.23.44.27.42-.17.25.2.48.94,1.49L17.77,9l3,3-.22.25.17.19,1.54,1.66-.3.26.9.71.88.64-.29.28,0,0-.32.4,0,0-.33.31-.33.44L22.18,17l-.64.7-3-2-.21.1-2,1.53-.18.32,0,.27-.39,0-.75.57.32.26.14.38-.23.18L14.81,19l-.27-.17-1.75,1.29,1,.25,1.11.53.44.26.6.55.92,1.1.37.67.38.89.89,1.56.13.39,0,.45v.59l.05,1.06,2.65-1.59,0-.3.2-.33,1-.79,2.28-1.93,2.19,1.63,5.11,4,1.9,1.44,1,.51-.41.35-2.51.91L30.8,33.71l.4.38-1.75,1.82L29.32,37l1.14,3.32.23.27.6,1.47,1.49-1.24,1.84-1.37.43-.16.31,0h.43l.88.07.6,0h.33l.32,0,.15,0,.48-.07.54-.09.29,0,.16-.06.13-.08,1-.66.32-.21" fill="none" stroke="#29a6ff" stroke-linejoin="round" stroke-width="1.5" fill-rule="evenodd"/><path id="4f5bf045-9270-4513-92a9-8b8a34788fab" data-name="ЦАО" d="M136.63,141.07h2l.46.08.48.07H140l.41-.05.5-.08.48-.07,0,.06v.12l.08.56.07.36,0,.33.06.42h0l.11.72v.06l0,.11.08.46,0,.11.1.49,0,.19,0,.18,0,.24.12.52,0,.12.08.36.1.38,0,.27,0,.11v.07h.06l.08,0,.32,0h.08l.35,0h.14l.23,0h.09l.07,0,.05,0,.43.35.15.11.16.1.21.15h0l.16.09.07,0,.31.19.07,0,.62.38.19.11.3.17.27.14.18.11,0,0h0l.23.13.2.11.06,0,.05-.09.07-.15,0-.07,0-.06.06-.27,0,0,0,0,0,0h.05l.67-.06h.06l0,0,0,0,0,0v0l.11.29.06.17,0-.17,0-.21v-.18l.09-.33,0-.07v-.09l0-.2.17-.45.1-.27,0-.13,0-.07.22-.65.05-.25v-.33l0-.37,0-.46v-.23l0-.29v-.08h0v-.08l0-.65,0-.37v-.11l0-.7,0-.44v-.26l0-.61V141l0-.37v-.18h.33l.28,0,.28,0,.58.06,1,.11.48.05.52,0,.56.05,1.61.16.12,0,.14,0,.2.06.39.12.06,0,.12,0,.24.07.22.07.11,0,.11,0,.17,0,.26,0h.8l.26,0,0-.33-.05-.87v-.43l0-.42v-.27l.14-1.18.1-.81,0-.16.16.13.56.5.85.62,1,.91,1.19,1.36,1.25,1.49.36.32.34.24.35.19.24.12.26.12.66.33.66.3,2,.84,2.13.73.49.16.71.26.63.22,1.65.56,2.4.77.86.28.24.09.25.09.31.13,1.23.43,2.09.74,1.6.54,1.36.53.93,0,.86,0V150H188l.26,0,1.14.06h.16l.16.05h0l.3,0,.3,0,.31.07.31.09.31.12.54.24.09,0,.36.17.41.22.49.3.3.19.26.22.24.24.26.29.28.35.25.36.24.38.84,1.56.31.59.09.19-.14.12L196,156l-.2.18-.23.2-.07.06,0,0-.35.3-.29.28-.06.05,0,0-.07.07-.11.1-.07.05,0,0,0,0-.28.25-.31.27-.33.29-.13.11-.37.32-.44.36-.13.13-.06.07-.07.07-.15.23,0,0,0,0-.14.1-.19.09-.07,0-.16.07-.18.11-.16.1-.12.09-.35.37-.69.76-.47.56-.09.1-.11.13,0,0-.07.08-.37.4,0,0-.2.24,0,0,0,0h-.16l-.06,0,0,0-1.33-1.34-.52-.54-.18-.16-.09-.06,0,0,0,0-.07-.06-.88.85-.64.61-.29.55-.55,1.22-.56,1.18-.13.28-.05.37.13,1.15-.3.58-.59,1.07-.75.63-.38.19-.41.14-.35.06h-.36l-1.43-.12-.65-.09-.59,0-.43,0-.34.14-.47.41-.18.28-.09.36.28,1.11.16.43.28.89.1.29.11.27.12.36,0,.26,0,.45-.22.67-.34.49-.37.56-.26.34.25.17.31.14.3.15.37.14,1.39.39.31.09.47.14.36.11.7.22.4.16.42.19.44.22.36.23.36.26.4.34h0l.53.46.47.34,1.43,1.17,1.16,1,0,0,.67.56.76.73.42.53.44.77.4,1,.75,2.43.17.36-.26-.06-.2,0-.19.69,0,.13,0,.06,0,0L188.4,191h0l0,.1-.23.51-.24.56-.18.4-.29.69-.29.76-.27.66-.12.19h-.32l-.19-.07-.23-.14-.59-.55-1.31-1.36-.63-.57-.61-.43-.1-.08v.4l.19,2v.06l-.86.07,0,.38-.38.44-.9,0,.07.48-.53.07v0l0,.18V196l0,.25v.08l-.79-.5,0,.05,0,0,0,.05-.06.1-.12.18-.14.22-.18.15-1.89.73-.58.22-.16.07-.23.08-.45.16h0l-.07,0,0-.08-.2-.52-.21-.59,0-.12-.43-1.29-.07-.22-.17-.48-.11-.29-.09-.27,0-.1v-.06l-.11-.27-.3-.3-.28-.27-.21-.09-.66.14-.16.07-.21.08-.12,0-.19.06-.81.28-.24.1-.06,0,0,.08.7,1.84.24.67.18.68v.09h-.19l-.16,0-.19,0-1.07.09-1.46.18-.25-.62-.21-.45-.75-1-.94.66-.08-.11-.16,0h-.09l-.21-.1-.08,0h-.1l-.11-.05-.07,0-.07,0-.1,0,0,0,0,0-.37-.17-.15-.07-.26-.11-.13-.06-.43-.2-.33-.15-.17-.07,0,.1-.14.31,0,.1-.3.71,0,.06v.13l-.18,1.53,0,.33,0,.26-.13,1.15v.32l0,.15-.09.72,0,.19h-.16l-.19,0-.47.11-.07,0-.06,0h0l0,0-.17-.18,0,0-.1-.07-.44-.26,0,0-.1,0-.34-.12-.35-.12-.07,0-.15,0-.09,0-.25-.08-.25-.07h-.12V200l-.05.25-.07.33,0,.06-.06.25-.07.26,0,0-.65-.23-.17-.07-.15-.06-.3-.11-.6.28-.15.07-.06,0-.14.06-.43.18-.24.09-.88.35-.12,0-.21,0-.18,0-.55.07-.77.11h-.13l-.11,0-.48.07-.08,0h-.12l-.39.1h0l-.52.13-.26.06-.29.07-.58.13h-.07l-.09,0h-.1l-.18,0-.56.08h-.05l-.08,0,0-.08-.24-.32-.09-.12-.16-.23,0,0,0,0,0,0,0,0-.94-.14-.09,0-.42-.06-.4-.06h-.06l-.06.25-.14.63-.17.78-.17-.06-.86-.28-.12,0-.15-.05-.63-.23-.06,0-.06,0-.82-.29-.5-.18-.39-.14h0l-.38-.16-.12-.05-.06,0L140.85,203l-.3-.25-.12.15-.19-.14,0,0-.45.51-.05.06-.81.93-.73-.7,0-.22.17-.14-.07-.06,0,0h0l-.24.21,0,.52-.34.37,0,0-.29.41,0,.07.44.28.41.37,0,0,0,0h0l.05.08-.37.42-.09-.06-.5.65-.08,0-.27.35L136,208l.23.15-.26.38,0,0,.18.14,0,0-1.31,1.71-.06,0,0,0,0,0-.06-.05v0l0,0-.56.18-.55-.18-.25.17-.06,0-.24-.3-1.06-1.37-.87-1.07-1.29.93L127.17,210l-2,.73-2.11.36-.85.05-1.13-.05-1.91-.54-2.1-1.1-1.23-1.21-1.26-1.65-.69-1.68-.39-2.16,0-1.65.33-1.69.58-1.3.88-1.27.15-.11,1.23-.75.5-.3,2-1.3,2.89-2.66,2.2-1.73,1-1.11,1.23-1.84.7-1.35,1.56-3,.41-.87.12-.63.15-.75,0-2.16-.11-.61-.12-.65-.47-1-.47-.47-.34-.34-.26-.26-1.4-.54-1.86-.21-1.84.44-1.26.59-1.45.82-1.08.86-1.56,1.23-1.22,1-1.41,1.12-1.53.9-1.75.7-2.07.21-2.13-.18-1.15-.62-.93-.85-.58-.81-.18-.26-.81-1.93-.06-.15-.84-2.18-.17-.54-.22-1.21-.66-1.88-.85-1.07-.29-.28.83-.57.47-.32,1.26-.86.32-.21.14-.1.08-.05,0,0,.24-.17.1-.1.16-.11,0,0,0,0,0,0,0,0h0l.06,0,.29-.15.83,1.57,0,0,.32-.2.27-.32.39-.38.17-.13,0-.05.2-.15.5-.38.14-.11.1-.07.54-.4L109,166l.14-.13.08-.09.4-.74.22-.31.14-.14.13-.19.08-.25.15-.43,0-.09,0-.17.64.08.09-1.08.19-1.44.24-.6.37-.51.5-.65.78-.71.62-.38.73-.33.5-.17.94-.1.82,0,.73-.06,1.11-.16,1.72-.37,1.76-.32,3.71-.66,2-.37,1,0h.27l.75,0,.36-.07.35-.13.35-.16.31-.18.91-.66.53-.43.1-.09.07-.07.17-.18.1-.12.11-.12.1-.12,0,0,.05-.05.2-.2.08-.09.08-.09.18-.22.06-.07.07-.1.25-.35.1-.16.1-.25.06-.16,0-.12.12-.45.1-.51.09-.38,0-.28.05-.27,0-.16.06-.31,0-.28,0-.17,0-.17.07-.39.08-.44,0-.25,0-.3.06-.39.17-1.21.07-.5.06-.5.09-.91.08-.45.07-.43.07-.36.08-.44.07-.33-.2-.26-.2-.23.15,0h.08l.3.09.12,0h.08" fill="none" stroke="#29a6ff" stroke-linecap="round" stroke-linejoin="round" stroke-width="1.5" fill-rule="evenodd"/></svg>